<svg width="872px" height="109px" viewBox="0 0 872px 109px" xmlns="http://www.w3.org/2000/svg" xmlns:xlink="http://www.w3.org/1999/xlink" xml:space="preserve" version="1.1"  baseProfile="full">
<line x1="1" y1="1" x2="871" y2="1" style="stroke:#ddd;stroke-width:2" />
<line x1="1" y1="1" x2="1" y2="108" style="stroke:#ddd;stroke-width:2" />
<line x1="1" y1="108" x2="871" y2="108" style="stroke:#ddd;stroke-width:2" />
<line x1="871" y1="1" x2="871" y2="108" style="stroke:#ddd;stroke-width:2" />
<line x1="109" y1="1" x2="109" y2="108" style="stroke:#ddd;stroke-width:2" />
<line x1="218" y1="1" x2="218" y2="108" style="stroke:#ddd;stroke-width:2" />
<line x1="327" y1="1" x2="327" y2="108" style="stroke:#ddd;stroke-width:2" />
<line x1="436" y1="1" x2="436" y2="108" style="stroke:#ddd;stroke-width:2" />
<line x1="545" y1="1" x2="545" y2="108" style="stroke:#ddd;stroke-width:2" />
<line x1="654" y1="1" x2="654" y2="108" style="stroke:#ddd;stroke-width:2" />
<line x1="763" y1="1" x2="763" y2="108" style="stroke:#ddd;stroke-width:2" />
<line x1="1" y1="54" x2="871" y2="54" style="stroke:#ddd;stroke-width:2;stroke-dasharray:3 3" />
<line x1="55" y1="1" x2="55" y2="108" style="stroke:#ddd;stroke-width:2;stroke-dasharray:3 3" />
<line x1="164" y1="1" x2="164" y2="108" style="stroke:#ddd;stroke-width:2;stroke-dasharray:3 3" />
<line x1="273" y1="1" x2="273" y2="108" style="stroke:#ddd;stroke-width:2;stroke-dasharray:3 3" />
<line x1="382" y1="1" x2="382" y2="108" style="stroke:#ddd;stroke-width:2;stroke-dasharray:3 3" />
<line x1="491" y1="1" x2="491" y2="108" style="stroke:#ddd;stroke-width:2;stroke-dasharray:3 3" />
<line x1="600" y1="1" x2="600" y2="108" style="stroke:#ddd;stroke-width:2;stroke-dasharray:3 3" />
<line x1="709" y1="1" x2="709" y2="108" style="stroke:#ddd;stroke-width:2;stroke-dasharray:3 3" />
<line x1="818" y1="1" x2="818" y2="108" style="stroke:#ddd;stroke-width:2;stroke-dasharray:3 3" />
<path d="M18.75,15.82c0.75,1.43,1.84,2.51,1.86,4.41c0.14,14.27,0.14,48.02-0.31,75.27" style="fill:none;stroke:black;stroke-width:3" />
<circle cx="18.75" cy="15.82" r="5" stroke-width="0" fill="#FF2A00" opacity="0.7" />
<path d="M127.75,15.82c0.75,1.43,1.84,2.51,1.86,4.41c0.14,14.27,0.14,48.02-0.31,75.27" style="fill:none;stroke:#999;stroke-width:3" />
<path d="M131.23,18.15C149.25,16.5,183.18,15,195.25,15c2.75,0,3.6,2.1,3.5,5.5c-0.5,16.75-1,50.25-0.5,72.5" style="fill:none;stroke:black;stroke-width:3" />
<circle cx="131.23" cy="18.15" r="5" stroke-width="0" fill="#FF2A00" opacity="0.7" />
<path d="M236.75,15.82c0.75,1.43,1.84,2.51,1.86,4.41c0.14,14.27,0.14,48.02-0.31,75.27" style="fill:none;stroke:#999;stroke-width:3" />
<path d="M240.23,18.15C258.25,16.5,292.18,15,304.25,15c2.75,0,3.6,2.1,3.5,5.5c-0.5,16.75-1,50.25-0.5,72.5" style="fill:none;stroke:#999;stroke-width:3" />
<path d="M253.49,34.3c0.77,0.35,3.27,0.46,4.04,0.35c3.6-0.47,16.97-2.64,31.92-3.87c1.18-0.1,2.26,0.07,3.24,0.36" style="fill:none;stroke:black;stroke-width:3" />
<circle cx="253.49" cy="34.3" r="5" stroke-width="0" fill="#FF2A00" opacity="0.7" />
<path d="M345.75,15.82c0.75,1.43,1.84,2.51,1.86,4.41c0.14,14.27,0.14,48.02-0.31,75.27" style="fill:none;stroke:#999;stroke-width:3" />
<path d="M349.23,18.15C367.25,16.5,401.18,15,413.25,15c2.75,0,3.6,2.1,3.5,5.5c-0.5,16.75-1,50.25-0.5,72.5" style="fill:none;stroke:#999;stroke-width:3" />
<path d="M362.49,34.3c0.77,0.35,3.27,0.46,4.04,0.35c3.6-0.47,16.97-2.64,31.92-3.87c1.18-0.1,2.26,0.07,3.24,0.36" style="fill:none;stroke:#999;stroke-width:3" />
<path d="M364.83,52.18c0.71,0.33,3.08,0.51,3.8,0.43c4.18-0.43,14.16-2.46,27.77-3.21c0.89-0.05,2.85-0.13,4.18,0.15" style="fill:none;stroke:black;stroke-width:3" />
<circle cx="364.83" cy="52.18" r="5" stroke-width="0" fill="#FF2A00" opacity="0.7" />
<path d="M454.75,15.82c0.75,1.43,1.84,2.51,1.86,4.41c0.14,14.27,0.14,48.02-0.31,75.27" style="fill:none;stroke:#999;stroke-width:3" />
<path d="M458.23,18.15C476.25,16.5,510.18,15,522.25,15c2.75,0,3.6,2.1,3.5,5.5c-0.5,16.75-1,50.25-0.5,72.5" style="fill:none;stroke:#999;stroke-width:3" />
<path d="M471.49,34.3c0.77,0.35,3.27,0.46,4.04,0.35c3.6-0.47,16.97-2.64,31.92-3.87c1.18-0.1,2.26,0.07,3.24,0.36" style="fill:none;stroke:#999;stroke-width:3" />
<path d="M473.83,52.18c0.71,0.33,3.08,0.51,3.8,0.43c4.18-0.43,14.16-2.46,27.77-3.21c0.89-0.05,2.85-0.13,4.18,0.15" style="fill:none;stroke:#999;stroke-width:3" />
<path d="M466.83,75.39c0.57,0.19,2.77,0.25,3.73,0.16C478.5,74.75,502.0,72,510.97,71.5c1.55-0.09,3.42,0.32,4.2,0.63" style="fill:none;stroke:black;stroke-width:3" />
<circle cx="466.83" cy="75.39" r="5" stroke-width="0" fill="#FF2A00" opacity="0.7" />
<path d="M563.75,15.82c0.75,1.43,1.84,2.51,1.86,4.41c0.14,14.27,0.14,48.02-0.31,75.27" style="fill:none;stroke:#999;stroke-width:3" />
<path d="M567.23,18.15C585.25,16.5,619.1800000000001,15,631.25,15c2.75,0,3.6,2.1,3.5,5.5c-0.5,16.75-1,50.25-0.5,72.5" style="fill:none;stroke:#999;stroke-width:3" />
<path d="M580.49,34.3c0.77,0.35,3.27,0.46,4.04,0.35c3.6-0.47,16.97-2.64,31.92-3.87c1.18-0.1,2.26,0.07,3.24,0.36" style="fill:none;stroke:#999;stroke-width:3" />
<path d="M582.8299999999999,52.18c0.71,0.33,3.08,0.51,3.8,0.43c4.18-0.43,14.16-2.46,27.77-3.21c0.89-0.05,2.85-0.13,4.18,0.15" style="fill:none;stroke:#999;stroke-width:3" />
<path d="M575.8299999999999,75.39c0.57,0.19,2.77,0.25,3.73,0.16C587.5,74.75,611.0,72,619.97,71.5c1.55-0.09,3.42,0.32,4.2,0.63" style="fill:none;stroke:#999;stroke-width:3" />
<path d="M598.12,33.39c0.63,0.76,0.63,2.47,0.63,3.08c0,4.26,0.31,31.48,0.16,35.74" style="fill:none;stroke:black;stroke-width:3" />
<circle cx="598.12" cy="33.39" r="5" stroke-width="0" fill="#FF2A00" opacity="0.7" />
<path d="M672.75,15.82c0.75,1.43,1.84,2.51,1.86,4.41c0.14,14.27,0.14,48.02-0.31,75.27" style="fill:none;stroke:#999;stroke-width:3" />
<path d="M676.23,18.15C694.25,16.5,728.1800000000001,15,740.25,15c2.75,0,3.6,2.1,3.5,5.5c-0.5,16.75-1,50.25-0.5,72.5" style="fill:none;stroke:#999;stroke-width:3" />
<path d="M689.49,34.3c0.77,0.35,3.27,0.46,4.04,0.35c3.6-0.47,16.97-2.64,31.92-3.87c1.18-0.1,2.26,0.07,3.24,0.36" style="fill:none;stroke:#999;stroke-width:3" />
<path d="M691.8299999999999,52.18c0.71,0.33,3.08,0.51,3.8,0.43c4.18-0.43,14.16-2.46,27.77-3.21c0.89-0.05,2.85-0.13,4.18,0.15" style="fill:none;stroke:#999;stroke-width:3" />
<path d="M684.8299999999999,75.39c0.57,0.19,2.77,0.25,3.73,0.16C696.5,74.75,720.0,72,728.97,71.5c1.55-0.09,3.42,0.32,4.2,0.63" style="fill:none;stroke:#999;stroke-width:3" />
<path d="M707.12,33.39c0.63,0.76,0.63,2.47,0.63,3.08c0,4.26,0.31,31.48,0.16,35.74" style="fill:none;stroke:#999;stroke-width:3" />
<path d="M723.5,57.5c3.02,1.66,5.6,5.18,6.25,7.25" style="fill:none;stroke:black;stroke-width:3" />
<circle cx="723.5" cy="57.5" r="5" stroke-width="0" fill="#FF2A00" opacity="0.7" />
<path d="M781.75,15.82c0.75,1.43,1.84,2.51,1.86,4.41c0.14,14.27,0.14,48.02-0.31,75.27" style="fill:none;stroke:#999;stroke-width:3" />
<path d="M785.23,18.15C803.25,16.5,837.1800000000001,15,849.25,15c2.75,0,3.6,2.1,3.5,5.5c-0.5,16.75-1,50.25-0.5,72.5" style="fill:none;stroke:#999;stroke-width:3" />
<path d="M798.49,34.3c0.77,0.35,3.27,0.46,4.04,0.35c3.6-0.47,16.97-2.64,31.92-3.87c1.18-0.1,2.26,0.07,3.24,0.36" style="fill:none;stroke:#999;stroke-width:3" />
<path d="M800.8299999999999,52.18c0.71,0.33,3.08,0.51,3.8,0.43c4.18-0.43,14.16-2.46,27.77-3.21c0.89-0.05,2.85-0.13,4.18,0.15" style="fill:none;stroke:#999;stroke-width:3" />
<path d="M793.8299999999999,75.39c0.57,0.19,2.77,0.25,3.73,0.16C805.5,74.75,829.0,72,837.97,71.5c1.55-0.09,3.42,0.32,4.2,0.63" style="fill:none;stroke:#999;stroke-width:3" />
<path d="M816.12,33.39c0.63,0.76,0.63,2.47,0.63,3.08c0,4.26,0.31,31.48,0.16,35.74" style="fill:none;stroke:#999;stroke-width:3" />
<path d="M832.5,57.5c3.02,1.66,5.6,5.18,6.25,7.25" style="fill:none;stroke:#999;stroke-width:3" />
<path d="M784.25,92.51c13.07,0,49.96-2.1,68-2.51" style="fill:none;stroke:black;stroke-width:3" />
<circle cx="784.25" cy="92.51" r="5" stroke-width="0" fill="#FF2A00" opacity="0.7" />
</svg>