<svg width="872px" height="109px" viewBox="0 0 872px 109px" xmlns="http://www.w3.org/2000/svg" xmlns:xlink="http://www.w3.org/1999/xlink" xml:space="preserve" version="1.1"  baseProfile="full">
<line x1="1" y1="1" x2="871" y2="1" style="stroke:#ddd;stroke-width:2" />
<line x1="1" y1="1" x2="1" y2="108" style="stroke:#ddd;stroke-width:2" />
<line x1="1" y1="108" x2="871" y2="108" style="stroke:#ddd;stroke-width:2" />
<line x1="871" y1="1" x2="871" y2="108" style="stroke:#ddd;stroke-width:2" />
<line x1="109" y1="1" x2="109" y2="108" style="stroke:#ddd;stroke-width:2" />
<line x1="218" y1="1" x2="218" y2="108" style="stroke:#ddd;stroke-width:2" />
<line x1="327" y1="1" x2="327" y2="108" style="stroke:#ddd;stroke-width:2" />
<line x1="436" y1="1" x2="436" y2="108" style="stroke:#ddd;stroke-width:2" />
<line x1="545" y1="1" x2="545" y2="108" style="stroke:#ddd;stroke-width:2" />
<line x1="654" y1="1" x2="654" y2="108" style="stroke:#ddd;stroke-width:2" />
<line x1="763" y1="1" x2="763" y2="108" style="stroke:#ddd;stroke-width:2" />
<line x1="1" y1="54" x2="871" y2="54" style="stroke:#ddd;stroke-width:2;stroke-dasharray:3 3" />
<line x1="55" y1="1" x2="55" y2="108" style="stroke:#ddd;stroke-width:2;stroke-dasharray:3 3" />
<line x1="164" y1="1" x2="164" y2="108" style="stroke:#ddd;stroke-width:2;stroke-dasharray:3 3" />
<line x1="273" y1="1" x2="273" y2="108" style="stroke:#ddd;stroke-width:2;stroke-dasharray:3 3" />
<line x1="382" y1="1" x2="382" y2="108" style="stroke:#ddd;stroke-width:2;stroke-dasharray:3 3" />
<line x1="491" y1="1" x2="491" y2="108" style="stroke:#ddd;stroke-width:2;stroke-dasharray:3 3" />
<line x1="600" y1="1" x2="600" y2="108" style="stroke:#ddd;stroke-width:2;stroke-dasharray:3 3" />
<line x1="709" y1="1" x2="709" y2="108" style="stroke:#ddd;stroke-width:2;stroke-dasharray:3 3" />
<line x1="818" y1="1" x2="818" y2="108" style="stroke:#ddd;stroke-width:2;stroke-dasharray:3 3" />
<path d="M48.81,10.25c2.99,1.35,7.91,6.58,7.91,9.27" style="fill:none;stroke:black;stroke-width:3" />
<circle cx="48.81" cy="10.25" r="5" stroke-width="0" fill="#FF2A00" opacity="0.7" />
<path d="M157.81,10.25c2.99,1.35,7.91,6.58,7.91,9.27" style="fill:none;stroke:#999;stroke-width:3" />
<path d="M129.0,27.61c1.42,0.1,4.68,0.69,6.06,0.55C146.25,27,177.0,22.25,192.2,21.95c2.35-0.05,3.55,0.05,5.3,0.7" style="fill:none;stroke:black;stroke-width:3" />
<circle cx="129.0" cy="27.61" r="5" stroke-width="0" fill="#FF2A00" opacity="0.7" />
<path d="M266.81,10.25c2.99,1.35,7.91,6.58,7.91,9.27" style="fill:none;stroke:#999;stroke-width:3" />
<path d="M238.0,27.61c1.42,0.1,4.68,0.69,6.06,0.55C255.25,27,286.0,22.25,301.2,21.95c2.35-0.05,3.55,0.05,5.3,0.7" style="fill:none;stroke:#999;stroke-width:3" />
<path d="M253.0,36c0.22,1.69-0.06,3.89-0.78,5.34c-4.6,9.2-10.43,17.85-20.97,29.05" style="fill:none;stroke:black;stroke-width:3" />
<circle cx="253.0" cy="36.0" r="5" stroke-width="0" fill="#FF2A00" opacity="0.7" />
<path d="M375.81,10.25c2.99,1.35,7.91,6.58,7.91,9.27" style="fill:none;stroke:#999;stroke-width:3" />
<path d="M347.0,27.61c1.42,0.1,4.68,0.69,6.06,0.55C364.25,27,395.0,22.25,410.2,21.95c2.35-0.05,3.55,0.05,5.3,0.7" style="fill:none;stroke:#999;stroke-width:3" />
<path d="M362.0,36c0.22,1.69-0.06,3.89-0.78,5.34c-4.6,9.2-10.43,17.85-20.97,29.05" style="fill:none;stroke:#999;stroke-width:3" />
<path d="M355.23,55.9c1.06,7.68-0.73,34.35-0.25,41.1" style="fill:none;stroke:black;stroke-width:3" />
<circle cx="355.23" cy="55.9" r="5" stroke-width="0" fill="#FF2A00" opacity="0.7" />
<path d="M484.81,10.25c2.99,1.35,7.91,6.58,7.91,9.27" style="fill:none;stroke:#999;stroke-width:3" />
<path d="M456.0,27.61c1.42,0.1,4.68,0.69,6.06,0.55C473.25,27,504.0,22.25,519.2,21.95c2.35-0.05,3.55,0.05,5.3,0.7" style="fill:none;stroke:#999;stroke-width:3" />
<path d="M471.0,36c0.22,1.69-0.06,3.89-0.78,5.34c-4.6,9.2-10.43,17.85-20.97,29.05" style="fill:none;stroke:#999;stroke-width:3" />
<path d="M464.23,55.9c1.06,7.68-0.73,34.35-0.25,41.1" style="fill:none;stroke:#999;stroke-width:3" />
<path d="M495.77,31.25c0.19,0.45,0.57,1.77,0.36,2.66C494.93,39.16,489.40999999999997,49.96,480.0,57" style="fill:none;stroke:black;stroke-width:3" />
<circle cx="495.77" cy="31.25" r="5" stroke-width="0" fill="#FF2A00" opacity="0.7" />
<path d="M593.81,10.25c2.99,1.35,7.91,6.58,7.91,9.27" style="fill:none;stroke:#999;stroke-width:3" />
<path d="M565.0,27.61c1.42,0.1,4.68,0.69,6.06,0.55C582.25,27,613.0,22.25,628.2,21.95c2.35-0.05,3.55,0.05,5.3,0.7" style="fill:none;stroke:#999;stroke-width:3" />
<path d="M580.0,36c0.22,1.69-0.06,3.89-0.78,5.34c-4.6,9.2-10.43,17.85-20.97,29.05" style="fill:none;stroke:#999;stroke-width:3" />
<path d="M573.23,55.9c1.06,7.68-0.73,34.35-0.25,41.1" style="fill:none;stroke:#999;stroke-width:3" />
<path d="M604.77,31.25c0.19,0.45,0.57,1.77,0.36,2.66C603.9300000000001,39.16,598.41,49.96,589.0,57" style="fill:none;stroke:#999;stroke-width:3" />
<path d="M605.71,39.36c0.34,0.04,2.79,0,3.77-0.12c3.2-0.4,9.14-1.6,13.4-3.12c3.06-1.09,4.13,1,3.22,3.27C619.75,55.25,604.75,79.5,583.0,90" style="fill:none;stroke:black;stroke-width:3" />
<circle cx="605.71" cy="39.36" r="5" stroke-width="0" fill="#FF2A00" opacity="0.7" />
<path d="M702.81,10.25c2.99,1.35,7.91,6.58,7.91,9.27" style="fill:none;stroke:#999;stroke-width:3" />
<path d="M674.0,27.61c1.42,0.1,4.68,0.69,6.06,0.55C691.25,27,722.0,22.25,737.2,21.95c2.35-0.05,3.55,0.05,5.3,0.7" style="fill:none;stroke:#999;stroke-width:3" />
<path d="M689.0,36c0.22,1.69-0.06,3.89-0.78,5.34c-4.6,9.2-10.43,17.85-20.97,29.05" style="fill:none;stroke:#999;stroke-width:3" />
<path d="M682.23,55.9c1.06,7.68-0.73,34.35-0.25,41.1" style="fill:none;stroke:#999;stroke-width:3" />
<path d="M713.77,31.25c0.19,0.45,0.57,1.77,0.36,2.66C712.9300000000001,39.16,707.41,49.96,698.0,57" style="fill:none;stroke:#999;stroke-width:3" />
<path d="M714.71,39.36c0.34,0.04,2.79,0,3.77-0.12c3.2-0.4,9.14-1.6,13.4-3.12c3.06-1.09,4.13,1,3.22,3.27C728.75,55.25,713.75,79.5,692.0,90" style="fill:none;stroke:#999;stroke-width:3" />
<path d="M710.0,48.5c2.9,1.32,7.5,5.41,8.23,7.46" style="fill:none;stroke:black;stroke-width:3" />
<circle cx="710.0" cy="48.5" r="5" stroke-width="0" fill="#FF2A00" opacity="0.7" />
<path d="M811.81,10.25c2.99,1.35,7.91,6.58,7.91,9.27" style="fill:none;stroke:#999;stroke-width:3" />
<path d="M783.0,27.61c1.42,0.1,4.68,0.69,6.06,0.55C800.25,27,831.0,22.25,846.2,21.95c2.35-0.05,3.55,0.05,5.3,0.7" style="fill:none;stroke:#999;stroke-width:3" />
<path d="M798.0,36c0.22,1.69-0.06,3.89-0.78,5.34c-4.6,9.2-10.43,17.85-20.97,29.05" style="fill:none;stroke:#999;stroke-width:3" />
<path d="M791.23,55.9c1.06,7.68-0.73,34.35-0.25,41.1" style="fill:none;stroke:#999;stroke-width:3" />
<path d="M822.77,31.25c0.19,0.45,0.57,1.77,0.36,2.66C821.9300000000001,39.16,816.41,49.96,807.0,57" style="fill:none;stroke:#999;stroke-width:3" />
<path d="M823.71,39.36c0.34,0.04,2.79,0,3.77-0.12c3.2-0.4,9.14-1.6,13.4-3.12c3.06-1.09,4.13,1,3.22,3.27C837.75,55.25,822.75,79.5,801.0,90" style="fill:none;stroke:#999;stroke-width:3" />
<path d="M819.0,48.5c2.9,1.32,7.5,5.41,8.23,7.46" style="fill:none;stroke:#999;stroke-width:3" />
<path d="M808.5,62.5c9.5,3.5,33.5,24,42,28.07c2.42,1.16,4.23,2.03,6.5,2.43" style="fill:none;stroke:black;stroke-width:3" />
<circle cx="808.5" cy="62.5" r="5" stroke-width="0" fill="#FF2A00" opacity="0.7" />
</svg>