<svg width="872px" height="109px" viewBox="0 0 872px 109px" xmlns="http://www.w3.org/2000/svg" xmlns:xlink="http://www.w3.org/1999/xlink" xml:space="preserve" version="1.1"  baseProfile="full">
<line x1="1" y1="1" x2="871" y2="1" style="stroke:#ddd;stroke-width:2" />
<line x1="1" y1="1" x2="1" y2="108" style="stroke:#ddd;stroke-width:2" />
<line x1="1" y1="108" x2="871" y2="108" style="stroke:#ddd;stroke-width:2" />
<line x1="871" y1="1" x2="871" y2="108" style="stroke:#ddd;stroke-width:2" />
<line x1="109" y1="1" x2="109" y2="108" style="stroke:#ddd;stroke-width:2" />
<line x1="218" y1="1" x2="218" y2="108" style="stroke:#ddd;stroke-width:2" />
<line x1="327" y1="1" x2="327" y2="108" style="stroke:#ddd;stroke-width:2" />
<line x1="436" y1="1" x2="436" y2="108" style="stroke:#ddd;stroke-width:2" />
<line x1="545" y1="1" x2="545" y2="108" style="stroke:#ddd;stroke-width:2" />
<line x1="654" y1="1" x2="654" y2="108" style="stroke:#ddd;stroke-width:2" />
<line x1="763" y1="1" x2="763" y2="108" style="stroke:#ddd;stroke-width:2" />
<line x1="1" y1="54" x2="871" y2="54" style="stroke:#ddd;stroke-width:2;stroke-dasharray:3 3" />
<line x1="55" y1="1" x2="55" y2="108" style="stroke:#ddd;stroke-width:2;stroke-dasharray:3 3" />
<line x1="164" y1="1" x2="164" y2="108" style="stroke:#ddd;stroke-width:2;stroke-dasharray:3 3" />
<line x1="273" y1="1" x2="273" y2="108" style="stroke:#ddd;stroke-width:2;stroke-dasharray:3 3" />
<line x1="382" y1="1" x2="382" y2="108" style="stroke:#ddd;stroke-width:2;stroke-dasharray:3 3" />
<line x1="491" y1="1" x2="491" y2="108" style="stroke:#ddd;stroke-width:2;stroke-dasharray:3 3" />
<line x1="600" y1="1" x2="600" y2="108" style="stroke:#ddd;stroke-width:2;stroke-dasharray:3 3" />
<line x1="709" y1="1" x2="709" y2="108" style="stroke:#ddd;stroke-width:2;stroke-dasharray:3 3" />
<line x1="818" y1="1" x2="818" y2="108" style="stroke:#ddd;stroke-width:2;stroke-dasharray:3 3" />
<path d="M17.25,25.47c0.41,1.03,0.82,1.54,0.82,2.91c0,1.37-0.27,41.1-0.27,41.79" style="fill:none;stroke:black;stroke-width:3" />
<circle cx="17.25" cy="25.47" r="5" stroke-width="0" fill="#FF2A00" opacity="0.7" />
<path d="M126.25,25.47c0.41,1.03,0.82,1.54,0.82,2.91c0,1.37-0.27,41.1-0.27,41.79" style="fill:none;stroke:#999;stroke-width:3" />
<path d="M127.75,28.13c2.31-0.17,19.4-2.93,21.51-3.14c1.76-0.17,2.89,1.89,2.75,2.91c-0.28,2.05-0.54,38.86-0.54,39.89" style="fill:none;stroke:black;stroke-width:3" />
<circle cx="127.75" cy="28.13" r="5" stroke-width="0" fill="#FF2A00" opacity="0.7" />
<path d="M235.25,25.47c0.41,1.03,0.82,1.54,0.82,2.91c0,1.37-0.27,41.1-0.27,41.79" style="fill:none;stroke:#999;stroke-width:3" />
<path d="M236.75,28.13c2.31-0.17,19.4-2.93,21.51-3.14c1.76-0.17,2.89,1.89,2.75,2.91c-0.28,2.05-0.54,38.86-0.54,39.89" style="fill:none;stroke:#999;stroke-width:3" />
<path d="M237.16,46.97c3.66,0,7.41-0.76,11.02-1.23c1.19-0.15,2.38-0.31,3.53-0.45" style="fill:none;stroke:black;stroke-width:3" />
<circle cx="237.16" cy="46.97" r="5" stroke-width="0" fill="#FF2A00" opacity="0.7" />
<path d="M344.25,25.47c0.41,1.03,0.82,1.54,0.82,2.91c0,1.37-0.27,41.1-0.27,41.79" style="fill:none;stroke:#999;stroke-width:3" />
<path d="M345.75,28.13c2.31-0.17,19.4-2.93,21.51-3.14c1.76-0.17,2.89,1.89,2.75,2.91c-0.28,2.05-0.54,38.86-0.54,39.89" style="fill:none;stroke:#999;stroke-width:3" />
<path d="M346.15999999999997,46.97c3.66,0,7.41-0.76,11.02-1.23c1.19-0.15,2.38-0.31,3.53-0.45" style="fill:none;stroke:#999;stroke-width:3" />
<path d="M345.75,66.34c7.5-0.57,15.25-1.81,22.49-2.11" style="fill:none;stroke:black;stroke-width:3" />
<circle cx="345.75" cy="66.34" r="5" stroke-width="0" fill="#FF2A00" opacity="0.7" />
<path d="M453.25,25.47c0.41,1.03,0.82,1.54,0.82,2.91c0,1.37-0.27,41.1-0.27,41.79" style="fill:none;stroke:#999;stroke-width:3" />
<path d="M454.75,28.13c2.31-0.17,19.4-2.93,21.51-3.14c1.76-0.17,2.89,1.89,2.75,2.91c-0.28,2.05-0.54,38.86-0.54,39.89" style="fill:none;stroke:#999;stroke-width:3" />
<path d="M455.15999999999997,46.97c3.66,0,7.41-0.76,11.02-1.23c1.19-0.15,2.38-0.31,3.53-0.45" style="fill:none;stroke:#999;stroke-width:3" />
<path d="M454.75,66.34c7.5-0.57,15.25-1.81,22.49-2.11" style="fill:none;stroke:#999;stroke-width:3" />
<path d="M493.55,16.5c0.56,1,1.11,1.98,1.11,3c0,7,0.19,17.5,0.19,25.25c0,16.25-4.09,41.25-17.59,50.5" style="fill:none;stroke:black;stroke-width:3" />
<circle cx="493.55" cy="16.5" r="5" stroke-width="0" fill="#FF2A00" opacity="0.7" />
<path d="M562.25,25.47c0.41,1.03,0.82,1.54,0.82,2.91c0,1.37-0.27,41.1-0.27,41.79" style="fill:none;stroke:#999;stroke-width:3" />
<path d="M563.75,28.13c2.31-0.17,19.4-2.93,21.51-3.14c1.76-0.17,2.89,1.89,2.75,2.91c-0.28,2.05-0.54,38.86-0.54,39.89" style="fill:none;stroke:#999;stroke-width:3" />
<path d="M564.16,46.97c3.66,0,7.41-0.76,11.02-1.23c1.19-0.15,2.38-0.31,3.53-0.45" style="fill:none;stroke:#999;stroke-width:3" />
<path d="M563.75,66.34c7.5-0.57,15.25-1.81,22.49-2.11" style="fill:none;stroke:#999;stroke-width:3" />
<path d="M602.55,16.5c0.56,1,1.11,1.98,1.11,3c0,7,0.19,17.5,0.19,25.25c0,16.25-4.09,41.25-17.59,50.5" style="fill:none;stroke:#999;stroke-width:3" />
<path d="M604.77,17.5C607.0,17.25,627.66,14.28,629.3199999999999,14c2.97-0.5,4.08,3.25,3.71,4.75c-0.36,1.44-0.56,50.25-0.56,70.5c0,11-7.22,3.25-8.3,2.25" style="fill:none;stroke:black;stroke-width:3" />
<circle cx="604.77" cy="17.5" r="5" stroke-width="0" fill="#FF2A00" opacity="0.7" />
<path d="M671.25,25.47c0.41,1.03,0.82,1.54,0.82,2.91c0,1.37-0.27,41.1-0.27,41.79" style="fill:none;stroke:#999;stroke-width:3" />
<path d="M672.75,28.13c2.31-0.17,19.4-2.93,21.51-3.14c1.76-0.17,2.89,1.89,2.75,2.91c-0.28,2.05-0.54,38.86-0.54,39.89" style="fill:none;stroke:#999;stroke-width:3" />
<path d="M673.16,46.97c3.66,0,7.41-0.76,11.02-1.23c1.19-0.15,2.38-0.31,3.53-0.45" style="fill:none;stroke:#999;stroke-width:3" />
<path d="M672.75,66.34c7.5-0.57,15.25-1.81,22.49-2.11" style="fill:none;stroke:#999;stroke-width:3" />
<path d="M711.55,16.5c0.56,1,1.11,1.98,1.11,3c0,7,0.19,17.5,0.19,25.25c0,16.25-4.09,41.25-17.59,50.5" style="fill:none;stroke:#999;stroke-width:3" />
<path d="M713.77,17.5C716.0,17.25,736.66,14.28,738.3199999999999,14c2.97-0.5,4.08,3.25,3.71,4.75c-0.36,1.44-0.56,50.25-0.56,70.5c0,11-7.22,3.25-8.3,2.25" style="fill:none;stroke:#999;stroke-width:3" />
<path d="M713.77,39.75c4.54-0.33,8.57-0.94,13.09-1.53c1.26-0.16,2.51-0.33,3.74-0.49" style="fill:none;stroke:black;stroke-width:3" />
<circle cx="713.77" cy="39.75" r="5" stroke-width="0" fill="#FF2A00" opacity="0.7" />
<path d="M780.25,25.47c0.41,1.03,0.82,1.54,0.82,2.91c0,1.37-0.27,41.1-0.27,41.79" style="fill:none;stroke:#999;stroke-width:3" />
<path d="M781.75,28.13c2.31-0.17,19.4-2.93,21.51-3.14c1.76-0.17,2.89,1.89,2.75,2.91c-0.28,2.05-0.54,38.86-0.54,39.89" style="fill:none;stroke:#999;stroke-width:3" />
<path d="M782.16,46.97c3.66,0,7.41-0.76,11.02-1.23c1.19-0.15,2.38-0.31,3.53-0.45" style="fill:none;stroke:#999;stroke-width:3" />
<path d="M781.75,66.34c7.5-0.57,15.25-1.81,22.49-2.11" style="fill:none;stroke:#999;stroke-width:3" />
<path d="M820.55,16.5c0.56,1,1.11,1.98,1.11,3c0,7,0.19,17.5,0.19,25.25c0,16.25-4.09,41.25-17.59,50.5" style="fill:none;stroke:#999;stroke-width:3" />
<path d="M822.77,17.5C825.0,17.25,845.66,14.28,847.3199999999999,14c2.97-0.5,4.08,3.25,3.71,4.75c-0.36,1.44-0.56,50.25-0.56,70.5c0,11-7.22,3.25-8.3,2.25" style="fill:none;stroke:#999;stroke-width:3" />
<path d="M822.77,39.75c4.54-0.33,8.57-0.94,13.09-1.53c1.26-0.16,2.51-0.33,3.74-0.49" style="fill:none;stroke:#999;stroke-width:3" />
<path d="M822.25,57.75c4.37-0.55,8.81-0.66,13.21-0.84c1.29-0.05,2.6-0.11,3.87-0.16" style="fill:none;stroke:black;stroke-width:3" />
<circle cx="822.25" cy="57.75" r="5" stroke-width="0" fill="#FF2A00" opacity="0.7" />
</svg>