<svg width="981px" height="109px" viewBox="0 0 981px 109px" xmlns="http://www.w3.org/2000/svg" xmlns:xlink="http://www.w3.org/1999/xlink" xml:space="preserve" version="1.1"  baseProfile="full">
<line x1="1" y1="1" x2="980" y2="1" style="stroke:#ddd;stroke-width:2" />
<line x1="1" y1="1" x2="1" y2="108" style="stroke:#ddd;stroke-width:2" />
<line x1="1" y1="108" x2="980" y2="108" style="stroke:#ddd;stroke-width:2" />
<line x1="980" y1="1" x2="980" y2="108" style="stroke:#ddd;stroke-width:2" />
<line x1="109" y1="1" x2="109" y2="108" style="stroke:#ddd;stroke-width:2" />
<line x1="218" y1="1" x2="218" y2="108" style="stroke:#ddd;stroke-width:2" />
<line x1="327" y1="1" x2="327" y2="108" style="stroke:#ddd;stroke-width:2" />
<line x1="436" y1="1" x2="436" y2="108" style="stroke:#ddd;stroke-width:2" />
<line x1="545" y1="1" x2="545" y2="108" style="stroke:#ddd;stroke-width:2" />
<line x1="654" y1="1" x2="654" y2="108" style="stroke:#ddd;stroke-width:2" />
<line x1="763" y1="1" x2="763" y2="108" style="stroke:#ddd;stroke-width:2" />
<line x1="872" y1="1" x2="872" y2="108" style="stroke:#ddd;stroke-width:2" />
<line x1="1" y1="54" x2="980" y2="54" style="stroke:#ddd;stroke-width:2;stroke-dasharray:3 3" />
<line x1="55" y1="1" x2="55" y2="108" style="stroke:#ddd;stroke-width:2;stroke-dasharray:3 3" />
<line x1="164" y1="1" x2="164" y2="108" style="stroke:#ddd;stroke-width:2;stroke-dasharray:3 3" />
<line x1="273" y1="1" x2="273" y2="108" style="stroke:#ddd;stroke-width:2;stroke-dasharray:3 3" />
<line x1="382" y1="1" x2="382" y2="108" style="stroke:#ddd;stroke-width:2;stroke-dasharray:3 3" />
<line x1="491" y1="1" x2="491" y2="108" style="stroke:#ddd;stroke-width:2;stroke-dasharray:3 3" />
<line x1="600" y1="1" x2="600" y2="108" style="stroke:#ddd;stroke-width:2;stroke-dasharray:3 3" />
<line x1="709" y1="1" x2="709" y2="108" style="stroke:#ddd;stroke-width:2;stroke-dasharray:3 3" />
<line x1="818" y1="1" x2="818" y2="108" style="stroke:#ddd;stroke-width:2;stroke-dasharray:3 3" />
<line x1="927" y1="1" x2="927" y2="108" style="stroke:#ddd;stroke-width:2;stroke-dasharray:3 3" />
<path d="M29.25,16.69c1.44,0.62,4.23,1.17,5.76,1.04c8.25-0.69,34.24-4.22,37.54-4.6c2.83-0.32,3.75,1.56,3.31,3.38c-0.96,3.95-2.11,6.23-3.79,11.42" style="fill:none;stroke:black;stroke-width:3" />
<circle cx="29.25" cy="16.69" r="5" stroke-width="0" fill="#FF2A00" opacity="0.7" />
<path d="M138.25,16.69c1.44,0.62,4.23,1.17,5.76,1.04c8.25-0.69,34.24-4.22,37.54-4.6c2.83-0.32,3.75,1.56,3.31,3.38c-0.96,3.95-2.11,6.23-3.79,11.42" style="fill:none;stroke:#999;stroke-width:3" />
<path d="M142.25,32c7-0.75,38.39-3.67,42.71-3.87" style="fill:none;stroke:black;stroke-width:3" />
<circle cx="142.25" cy="32.0" r="5" stroke-width="0" fill="#FF2A00" opacity="0.7" />
<path d="M247.25,16.69c1.44,0.62,4.23,1.17,5.76,1.04c8.25-0.69,34.24-4.22,37.54-4.6c2.83-0.32,3.75,1.56,3.31,3.38c-0.96,3.95-2.11,6.23-3.79,11.42" style="fill:none;stroke:#999;stroke-width:3" />
<path d="M251.25,32c7-0.75,38.39-3.67,42.71-3.87" style="fill:none;stroke:#999;stroke-width:3" />
<path d="M251.75,18.54c0,3.29-0.63,9.98-1.52,17.01C247.82999999999998,54.48,243.77,59.92,233.0,70.58" style="fill:none;stroke:black;stroke-width:3" />
<circle cx="251.75" cy="18.54" r="5" stroke-width="0" fill="#FF2A00" opacity="0.7" />
<path d="M356.25,16.69c1.44,0.62,4.23,1.17,5.76,1.04c8.25-0.69,34.24-4.22,37.54-4.6c2.83-0.32,3.75,1.56,3.31,3.38c-0.96,3.95-2.11,6.23-3.79,11.42" style="fill:none;stroke:#999;stroke-width:3" />
<path d="M360.25,32c7-0.75,38.39-3.67,42.71-3.87" style="fill:none;stroke:#999;stroke-width:3" />
<path d="M360.75,18.54c0,3.29-0.63,9.98-1.52,17.01C356.83,54.48,352.77,59.92,342.0,70.58" style="fill:none;stroke:#999;stroke-width:3" />
<path d="M388.57,31.66c7.93,12.09,19.68,22.84,29.1,29.57c1.83,1.31,3.88,2.1,5.58,2.52" style="fill:none;stroke:black;stroke-width:3" />
<circle cx="388.57" cy="31.66" r="5" stroke-width="0" fill="#FF2A00" opacity="0.7" />
<path d="M465.25,16.69c1.44,0.62,4.23,1.17,5.76,1.04c8.25-0.69,34.24-4.22,37.54-4.6c2.83-0.32,3.75,1.56,3.31,3.38c-0.96,3.95-2.11,6.23-3.79,11.42" style="fill:none;stroke:#999;stroke-width:3" />
<path d="M469.25,32c7-0.75,38.39-3.67,42.71-3.87" style="fill:none;stroke:#999;stroke-width:3" />
<path d="M469.75,18.54c0,3.29-0.63,9.98-1.52,17.01C465.83,54.48,461.77,59.92,451.0,70.58" style="fill:none;stroke:#999;stroke-width:3" />
<path d="M497.57,31.66c7.93,12.09,19.68,22.84,29.1,29.57c1.83,1.31,3.88,2.1,5.58,2.52" style="fill:none;stroke:#999;stroke-width:3" />
<path d="M470.52,55.14c0.41,0.65,0.83,0.97,0.83,1.84c0,0.86,2.91,23.79,2.91,24.22c0,0.43,0.14,0.43,0.27,1.3" style="fill:none;stroke:black;stroke-width:3" />
<circle cx="470.52" cy="55.14" r="5" stroke-width="0" fill="#FF2A00" opacity="0.7" />
<path d="M574.25,16.69c1.44,0.62,4.23,1.17,5.76,1.04c8.25-0.69,34.24-4.22,37.54-4.6c2.83-0.32,3.75,1.56,3.31,3.38c-0.96,3.95-2.11,6.23-3.79,11.42" style="fill:none;stroke:#999;stroke-width:3" />
<path d="M578.25,32c7-0.75,38.39-3.67,42.71-3.87" style="fill:none;stroke:#999;stroke-width:3" />
<path d="M578.75,18.54c0,3.29-0.63,9.98-1.52,17.01C574.8299999999999,54.48,570.77,59.92,560.0,70.58" style="fill:none;stroke:#999;stroke-width:3" />
<path d="M606.5699999999999,31.66c7.93,12.09,19.68,22.84,29.1,29.57c1.83,1.31,3.88,2.1,5.58,2.52" style="fill:none;stroke:#999;stroke-width:3" />
<path d="M579.52,55.14c0.41,0.65,0.83,0.97,0.83,1.84c0,0.86,2.91,23.79,2.91,24.22c0,0.43,0.14,0.43,0.27,1.3" style="fill:none;stroke:#999;stroke-width:3" />
<path d="M581.03,55.25c2.33-0.11,29.05-2.63,31.17-2.75c1.77-0.11,2.91,1.2,2.77,1.84c-0.28,1.3-1.75,16.46-2.44,24.44c-0.08,0.97-0.14,1.41-0.14,2.05" style="fill:none;stroke:black;stroke-width:3" />
<circle cx="581.03" cy="55.25" r="5" stroke-width="0" fill="#FF2A00" opacity="0.7" />
<path d="M683.25,16.69c1.44,0.62,4.23,1.17,5.76,1.04c8.25-0.69,34.24-4.22,37.54-4.6c2.83-0.32,3.75,1.56,3.31,3.38c-0.96,3.95-2.11,6.23-3.79,11.42" style="fill:none;stroke:#999;stroke-width:3" />
<path d="M687.25,32c7-0.75,38.39-3.67,42.71-3.87" style="fill:none;stroke:#999;stroke-width:3" />
<path d="M687.75,18.54c0,3.29-0.63,9.98-1.52,17.01C683.8299999999999,54.48,679.77,59.92,669.0,70.58" style="fill:none;stroke:#999;stroke-width:3" />
<path d="M715.5699999999999,31.66c7.93,12.09,19.68,22.84,29.1,29.57c1.83,1.31,3.88,2.1,5.58,2.52" style="fill:none;stroke:#999;stroke-width:3" />
<path d="M688.52,55.14c0.41,0.65,0.83,0.97,0.83,1.84c0,0.86,2.91,23.79,2.91,24.22c0,0.43,0.14,0.43,0.27,1.3" style="fill:none;stroke:#999;stroke-width:3" />
<path d="M690.03,55.25c2.33-0.11,29.05-2.63,31.17-2.75c1.77-0.11,2.91,1.2,2.77,1.84c-0.28,1.3-1.75,16.46-2.44,24.44c-0.08,0.97-0.14,1.41-0.14,2.05" style="fill:none;stroke:#999;stroke-width:3" />
<path d="M691.5,66.96c5.09,0,10.27-0.74,15.33-1.16c1.73-0.15,3.45-0.29,5.1-0.43" style="fill:none;stroke:black;stroke-width:3" />
<circle cx="691.5" cy="66.96" r="5" stroke-width="0" fill="#FF2A00" opacity="0.7" />
<path d="M792.25,16.69c1.44,0.62,4.23,1.17,5.76,1.04c8.25-0.69,34.24-4.22,37.54-4.6c2.83-0.32,3.75,1.56,3.31,3.38c-0.96,3.95-2.11,6.23-3.79,11.42" style="fill:none;stroke:#999;stroke-width:3" />
<path d="M796.25,32c7-0.75,38.39-3.67,42.71-3.87" style="fill:none;stroke:#999;stroke-width:3" />
<path d="M796.75,18.54c0,3.29-0.63,9.98-1.52,17.01C792.8299999999999,54.48,788.77,59.92,778.0,70.58" style="fill:none;stroke:#999;stroke-width:3" />
<path d="M824.5699999999999,31.66c7.93,12.09,19.68,22.84,29.1,29.57c1.83,1.31,3.88,2.1,5.58,2.52" style="fill:none;stroke:#999;stroke-width:3" />
<path d="M797.52,55.14c0.41,0.65,0.83,0.97,0.83,1.84c0,0.86,2.91,23.79,2.91,24.22c0,0.43,0.14,0.43,0.27,1.3" style="fill:none;stroke:#999;stroke-width:3" />
<path d="M799.03,55.25c2.33-0.11,29.05-2.63,31.17-2.75c1.77-0.11,2.91,1.2,2.77,1.84c-0.28,1.3-1.75,16.46-2.44,24.44c-0.08,0.97-0.14,1.41-0.14,2.05" style="fill:none;stroke:#999;stroke-width:3" />
<path d="M800.5,66.96c5.09,0,10.27-0.74,15.33-1.16c1.73-0.15,3.45-0.29,5.1-0.43" style="fill:none;stroke:#999;stroke-width:3" />
<path d="M802.47,80.07c6.42-0.46,18.96-1.71,26.96-2.11" style="fill:none;stroke:black;stroke-width:3" />
<circle cx="802.47" cy="80.07" r="5" stroke-width="0" fill="#FF2A00" opacity="0.7" />
<path d="M901.25,16.69c1.44,0.62,4.23,1.17,5.76,1.04c8.25-0.69,34.24-4.22,37.54-4.6c2.83-0.32,3.75,1.56,3.31,3.38c-0.96,3.95-2.11,6.23-3.79,11.42" style="fill:none;stroke:#999;stroke-width:3" />
<path d="M905.25,32c7-0.75,38.39-3.67,42.71-3.87" style="fill:none;stroke:#999;stroke-width:3" />
<path d="M905.75,18.54c0,3.29-0.63,9.98-1.52,17.01C901.8299999999999,54.48,897.77,59.92,887.0,70.58" style="fill:none;stroke:#999;stroke-width:3" />
<path d="M933.5699999999999,31.66c7.93,12.09,19.68,22.84,29.1,29.57c1.83,1.31,3.88,2.1,5.58,2.52" style="fill:none;stroke:#999;stroke-width:3" />
<path d="M906.52,55.14c0.41,0.65,0.83,0.97,0.83,1.84c0,0.86,2.91,23.79,2.91,24.22c0,0.43,0.14,0.43,0.27,1.3" style="fill:none;stroke:#999;stroke-width:3" />
<path d="M908.03,55.25c2.33-0.11,29.05-2.63,31.17-2.75c1.77-0.11,2.91,1.2,2.77,1.84c-0.28,1.3-1.75,16.46-2.44,24.44c-0.08,0.97-0.14,1.41-0.14,2.05" style="fill:none;stroke:#999;stroke-width:3" />
<path d="M909.5,66.96c5.09,0,10.27-0.74,15.33-1.16c1.73-0.15,3.45-0.29,5.1-0.43" style="fill:none;stroke:#999;stroke-width:3" />
<path d="M911.47,80.07c6.42-0.46,18.96-1.71,26.96-2.11" style="fill:none;stroke:#999;stroke-width:3" />
<path d="M892.63,92.93c1.02,0.37,2.88,0.4,3.9,0.37c13.47-0.44,39.52-4.16,59.03-4.26c1.7-0.01,2.72,0.18,3.57,0.36" style="fill:none;stroke:black;stroke-width:3" />
<circle cx="892.63" cy="92.93" r="5" stroke-width="0" fill="#FF2A00" opacity="0.7" />
</svg>