<svg width="1308px" height="109px" viewBox="0 0 1308px 109px" xmlns="http://www.w3.org/2000/svg" xmlns:xlink="http://www.w3.org/1999/xlink" xml:space="preserve" version="1.1"  baseProfile="full">
<line x1="1" y1="1" x2="1307" y2="1" style="stroke:#ddd;stroke-width:2" />
<line x1="1" y1="1" x2="1" y2="108" style="stroke:#ddd;stroke-width:2" />
<line x1="1" y1="108" x2="1307" y2="108" style="stroke:#ddd;stroke-width:2" />
<line x1="1307" y1="1" x2="1307" y2="108" style="stroke:#ddd;stroke-width:2" />
<line x1="109" y1="1" x2="109" y2="108" style="stroke:#ddd;stroke-width:2" />
<line x1="218" y1="1" x2="218" y2="108" style="stroke:#ddd;stroke-width:2" />
<line x1="327" y1="1" x2="327" y2="108" style="stroke:#ddd;stroke-width:2" />
<line x1="436" y1="1" x2="436" y2="108" style="stroke:#ddd;stroke-width:2" />
<line x1="545" y1="1" x2="545" y2="108" style="stroke:#ddd;stroke-width:2" />
<line x1="654" y1="1" x2="654" y2="108" style="stroke:#ddd;stroke-width:2" />
<line x1="763" y1="1" x2="763" y2="108" style="stroke:#ddd;stroke-width:2" />
<line x1="872" y1="1" x2="872" y2="108" style="stroke:#ddd;stroke-width:2" />
<line x1="981" y1="1" x2="981" y2="108" style="stroke:#ddd;stroke-width:2" />
<line x1="1090" y1="1" x2="1090" y2="108" style="stroke:#ddd;stroke-width:2" />
<line x1="1199" y1="1" x2="1199" y2="108" style="stroke:#ddd;stroke-width:2" />
<line x1="1" y1="54" x2="1307" y2="54" style="stroke:#ddd;stroke-width:2;stroke-dasharray:3 3" />
<line x1="55" y1="1" x2="55" y2="108" style="stroke:#ddd;stroke-width:2;stroke-dasharray:3 3" />
<line x1="164" y1="1" x2="164" y2="108" style="stroke:#ddd;stroke-width:2;stroke-dasharray:3 3" />
<line x1="273" y1="1" x2="273" y2="108" style="stroke:#ddd;stroke-width:2;stroke-dasharray:3 3" />
<line x1="382" y1="1" x2="382" y2="108" style="stroke:#ddd;stroke-width:2;stroke-dasharray:3 3" />
<line x1="491" y1="1" x2="491" y2="108" style="stroke:#ddd;stroke-width:2;stroke-dasharray:3 3" />
<line x1="600" y1="1" x2="600" y2="108" style="stroke:#ddd;stroke-width:2;stroke-dasharray:3 3" />
<line x1="709" y1="1" x2="709" y2="108" style="stroke:#ddd;stroke-width:2;stroke-dasharray:3 3" />
<line x1="818" y1="1" x2="818" y2="108" style="stroke:#ddd;stroke-width:2;stroke-dasharray:3 3" />
<line x1="927" y1="1" x2="927" y2="108" style="stroke:#ddd;stroke-width:2;stroke-dasharray:3 3" />
<line x1="1036" y1="1" x2="1036" y2="108" style="stroke:#ddd;stroke-width:2;stroke-dasharray:3 3" />
<line x1="1145" y1="1" x2="1145" y2="108" style="stroke:#ddd;stroke-width:2;stroke-dasharray:3 3" />
<line x1="1254" y1="1" x2="1254" y2="108" style="stroke:#ddd;stroke-width:2;stroke-dasharray:3 3" />
<path d="M16.88,27.38c0.76,0.5,4.15,0.67,4.92,0.5C25.75,27,43.0,23.75,48.75,23.5c1.27-0.06,3.24-0.19,3.88,0.06" style="fill:none;stroke:black;stroke-width:3" />
<circle cx="16.88" cy="27.38" r="5" stroke-width="0" fill="#FF2A00" opacity="0.7" />
<path d="M125.88,27.38c0.76,0.5,4.15,0.67,4.92,0.5C134.75,27,152.0,23.75,157.75,23.5c1.27-0.06,3.24-0.19,3.88,0.06" style="fill:none;stroke:#999;stroke-width:3" />
<path d="M143.4,12.75c0.38,0.34,1.19,2.53,1.26,3.2c0.08,0.68-0.05,15.83-0.13,20.05" style="fill:none;stroke:black;stroke-width:3" />
<circle cx="143.4" cy="12.75" r="5" stroke-width="0" fill="#FF2A00" opacity="0.7" />
<path d="M234.88,27.38c0.76,0.5,4.15,0.67,4.92,0.5C243.75,27,261.0,23.75,266.75,23.5c1.27-0.06,3.24-0.19,3.88,0.06" style="fill:none;stroke:#999;stroke-width:3" />
<path d="M252.4,12.75c0.38,0.34,1.19,2.53,1.26,3.2c0.08,0.68-0.05,15.83-0.13,20.05" style="fill:none;stroke:#999;stroke-width:3" />
<path d="M236.77,38.94c0.39,0.6,0.79,0.9,0.79,1.7c0,0.8,3.78,21.01,3.78,21.41c0,0.4,0.13,0.4,0.26,1.2" style="fill:none;stroke:black;stroke-width:3" />
<circle cx="236.77" cy="38.94" r="5" stroke-width="0" fill="#FF2A00" opacity="0.7" />
<path d="M343.88,27.38c0.76,0.5,4.15,0.67,4.92,0.5C352.75,27,370.0,23.75,375.75,23.5c1.27-0.06,3.24-0.19,3.88,0.06" style="fill:none;stroke:#999;stroke-width:3" />
<path d="M361.4,12.75c0.38,0.34,1.19,2.53,1.26,3.2c0.08,0.68-0.05,15.83-0.13,20.05" style="fill:none;stroke:#999;stroke-width:3" />
<path d="M345.77,38.94c0.39,0.6,0.79,0.9,0.79,1.7c0,0.8,3.78,21.01,3.78,21.41c0,0.4,0.13,0.4,0.26,1.2" style="fill:none;stroke:#999;stroke-width:3" />
<path d="M348.0,39.5c5.25-0.75,24.5-3.5,29.07-4.01c1.69-0.19,2.93,1.26,2.65,3.7c-0.52,4.59-1.97,13.31-2.97,18.31c-0.18,0.89-0.49,2.6-0.49,3.2" style="fill:none;stroke:black;stroke-width:3" />
<circle cx="348.0" cy="39.5" r="5" stroke-width="0" fill="#FF2A00" opacity="0.7" />
<path d="M452.88,27.38c0.76,0.5,4.15,0.67,4.92,0.5C461.75,27,479.0,23.75,484.75,23.5c1.27-0.06,3.24-0.19,3.88,0.06" style="fill:none;stroke:#999;stroke-width:3" />
<path d="M470.4,12.75c0.38,0.34,1.19,2.53,1.26,3.2c0.08,0.68-0.05,15.83-0.13,20.05" style="fill:none;stroke:#999;stroke-width:3" />
<path d="M454.77,38.94c0.39,0.6,0.79,0.9,0.79,1.7c0,0.8,3.78,21.01,3.78,21.41c0,0.4,0.13,0.4,0.26,1.2" style="fill:none;stroke:#999;stroke-width:3" />
<path d="M457.0,39.5c5.25-0.75,24.5-3.5,29.07-4.01c1.69-0.19,2.93,1.26,2.65,3.7c-0.52,4.59-1.97,13.31-2.97,18.31c-0.18,0.89-0.49,2.6-0.49,3.2" style="fill:none;stroke:#999;stroke-width:3" />
<path d="M457.62,49.88c5.29-0.54,10.57-1.21,15.85-1.81c1.56-0.18,3.09-0.35,4.54-0.51" style="fill:none;stroke:black;stroke-width:3" />
<circle cx="457.62" cy="49.88" r="5" stroke-width="0" fill="#FF2A00" opacity="0.7" />
<path d="M561.88,27.38c0.76,0.5,4.15,0.67,4.92,0.5C570.75,27,588.0,23.75,593.75,23.5c1.27-0.06,3.24-0.19,3.88,0.06" style="fill:none;stroke:#999;stroke-width:3" />
<path d="M579.4,12.75c0.38,0.34,1.19,2.53,1.26,3.2c0.08,0.68-0.05,15.83-0.13,20.05" style="fill:none;stroke:#999;stroke-width:3" />
<path d="M563.77,38.94c0.39,0.6,0.79,0.9,0.79,1.7c0,0.8,3.78,21.01,3.78,21.41c0,0.4,0.13,0.4,0.26,1.2" style="fill:none;stroke:#999;stroke-width:3" />
<path d="M566.0,39.5c5.25-0.75,24.5-3.5,29.07-4.01c1.69-0.19,2.93,1.26,2.65,3.7c-0.52,4.59-1.97,13.31-2.97,18.31c-0.18,0.89-0.49,2.6-0.49,3.2" style="fill:none;stroke:#999;stroke-width:3" />
<path d="M566.62,49.88c5.29-0.54,10.57-1.21,15.85-1.81c1.56-0.18,3.09-0.35,4.54-0.51" style="fill:none;stroke:#999;stroke-width:3" />
<path d="M569.51,61c6.15-0.43,16.74-2.25,23.82-2.95" style="fill:none;stroke:black;stroke-width:3" />
<circle cx="569.51" cy="61.0" r="5" stroke-width="0" fill="#FF2A00" opacity="0.7" />
<path d="M670.88,27.38c0.76,0.5,4.15,0.67,4.92,0.5C679.75,27,697.0,23.75,702.75,23.5c1.27-0.06,3.24-0.19,3.88,0.06" style="fill:none;stroke:#999;stroke-width:3" />
<path d="M688.4,12.75c0.38,0.34,1.19,2.53,1.26,3.2c0.08,0.68-0.05,15.83-0.13,20.05" style="fill:none;stroke:#999;stroke-width:3" />
<path d="M672.77,38.94c0.39,0.6,0.79,0.9,0.79,1.7c0,0.8,3.78,21.01,3.78,21.41c0,0.4,0.13,0.4,0.26,1.2" style="fill:none;stroke:#999;stroke-width:3" />
<path d="M675.0,39.5c5.25-0.75,24.5-3.5,29.07-4.01c1.69-0.19,2.93,1.26,2.65,3.7c-0.52,4.59-1.97,13.31-2.97,18.31c-0.18,0.89-0.49,2.6-0.49,3.2" style="fill:none;stroke:#999;stroke-width:3" />
<path d="M675.62,49.88c5.29-0.54,10.57-1.21,15.85-1.81c1.56-0.18,3.09-0.35,4.54-0.51" style="fill:none;stroke:#999;stroke-width:3" />
<path d="M678.51,61c6.15-0.43,16.74-2.25,23.82-2.95" style="fill:none;stroke:#999;stroke-width:3" />
<path d="M664.13,75.63c0.76,0.5,4.15,0.67,4.92,0.5C673.0,75.25,702.25,71,708.0,70.75c1.27-0.05,3.24-0.19,3.88,0.06" style="fill:none;stroke:black;stroke-width:3" />
<circle cx="664.13" cy="75.63" r="5" stroke-width="0" fill="#FF2A00" opacity="0.7" />
<path d="M779.88,27.38c0.76,0.5,4.15,0.67,4.92,0.5C788.75,27,806.0,23.75,811.75,23.5c1.27-0.06,3.24-0.19,3.88,0.06" style="fill:none;stroke:#999;stroke-width:3" />
<path d="M797.4,12.75c0.38,0.34,1.19,2.53,1.26,3.2c0.08,0.68-0.05,15.83-0.13,20.05" style="fill:none;stroke:#999;stroke-width:3" />
<path d="M781.77,38.94c0.39,0.6,0.79,0.9,0.79,1.7c0,0.8,3.78,21.01,3.78,21.41c0,0.4,0.13,0.4,0.26,1.2" style="fill:none;stroke:#999;stroke-width:3" />
<path d="M784.0,39.5c5.25-0.75,24.5-3.5,29.07-4.01c1.69-0.19,2.93,1.26,2.65,3.7c-0.52,4.59-1.97,13.31-2.97,18.31c-0.18,0.89-0.49,2.6-0.49,3.2" style="fill:none;stroke:#999;stroke-width:3" />
<path d="M784.62,49.88c5.29-0.54,10.57-1.21,15.85-1.81c1.56-0.18,3.09-0.35,4.54-0.51" style="fill:none;stroke:#999;stroke-width:3" />
<path d="M787.51,61c6.15-0.43,16.74-2.25,23.82-2.95" style="fill:none;stroke:#999;stroke-width:3" />
<path d="M773.13,75.63c0.76,0.5,4.15,0.67,4.92,0.5C782.0,75.25,811.25,71,817.0,70.75c1.27-0.05,3.24-0.19,3.88,0.06" style="fill:none;stroke:#999;stroke-width:3" />
<path d="M797.9,61.25c0.38,0.34,1.19,2.53,1.26,3.2c0.08,0.67-0.05,25.83-0.13,30.05" style="fill:none;stroke:black;stroke-width:3" />
<circle cx="797.9" cy="61.25" r="5" stroke-width="0" fill="#FF2A00" opacity="0.7" />
<path d="M888.88,27.38c0.76,0.5,4.15,0.67,4.92,0.5C897.75,27,915.0,23.75,920.75,23.5c1.27-0.06,3.24-0.19,3.88,0.06" style="fill:none;stroke:#999;stroke-width:3" />
<path d="M906.4,12.75c0.38,0.34,1.19,2.53,1.26,3.2c0.08,0.68-0.05,15.83-0.13,20.05" style="fill:none;stroke:#999;stroke-width:3" />
<path d="M890.77,38.94c0.39,0.6,0.79,0.9,0.79,1.7c0,0.8,3.78,21.01,3.78,21.41c0,0.4,0.13,0.4,0.26,1.2" style="fill:none;stroke:#999;stroke-width:3" />
<path d="M893.0,39.5c5.25-0.75,24.5-3.5,29.07-4.01c1.69-0.19,2.93,1.26,2.65,3.7c-0.52,4.59-1.97,13.31-2.97,18.31c-0.18,0.89-0.49,2.6-0.49,3.2" style="fill:none;stroke:#999;stroke-width:3" />
<path d="M893.62,49.88c5.29-0.54,10.57-1.21,15.85-1.81c1.56-0.18,3.09-0.35,4.54-0.51" style="fill:none;stroke:#999;stroke-width:3" />
<path d="M896.51,61c6.15-0.43,16.74-2.25,23.82-2.95" style="fill:none;stroke:#999;stroke-width:3" />
<path d="M882.13,75.63c0.76,0.5,4.15,0.67,4.92,0.5C891.0,75.25,920.25,71,926.0,70.75c1.27-0.05,3.24-0.19,3.88,0.06" style="fill:none;stroke:#999;stroke-width:3" />
<path d="M906.9,61.25c0.38,0.34,1.19,2.53,1.26,3.2c0.08,0.67-0.05,25.83-0.13,30.05" style="fill:none;stroke:#999;stroke-width:3" />
<path d="M938.1,20.48c0.61,1.01,1.02,2.02,1.23,3.03c0.2,1.01,0.27,26.85,0.2,29.12C939.25,63,936.0,83.5,926.75,93" style="fill:none;stroke:black;stroke-width:3" />
<circle cx="938.1" cy="20.48" r="5" stroke-width="0" fill="#FF2A00" opacity="0.7" />
<path d="M997.88,27.38c0.76,0.5,4.15,0.67,4.92,0.5C1006.75,27,1024.0,23.75,1029.75,23.5c1.27-0.06,3.24-0.19,3.88,0.06" style="fill:none;stroke:#999;stroke-width:3" />
<path d="M1015.4,12.75c0.38,0.34,1.19,2.53,1.26,3.2c0.08,0.68-0.05,15.83-0.13,20.05" style="fill:none;stroke:#999;stroke-width:3" />
<path d="M999.77,38.94c0.39,0.6,0.79,0.9,0.79,1.7c0,0.8,3.78,21.01,3.78,21.41c0,0.4,0.13,0.4,0.26,1.2" style="fill:none;stroke:#999;stroke-width:3" />
<path d="M1002.0,39.5c5.25-0.75,24.5-3.5,29.07-4.01c1.69-0.19,2.93,1.26,2.65,3.7c-0.52,4.59-1.97,13.31-2.97,18.31c-0.18,0.89-0.49,2.6-0.49,3.2" style="fill:none;stroke:#999;stroke-width:3" />
<path d="M1002.62,49.88c5.29-0.54,10.57-1.21,15.85-1.81c1.56-0.18,3.09-0.35,4.54-0.51" style="fill:none;stroke:#999;stroke-width:3" />
<path d="M1005.51,61c6.15-0.43,16.74-2.25,23.82-2.95" style="fill:none;stroke:#999;stroke-width:3" />
<path d="M991.13,75.63c0.76,0.5,4.15,0.67,4.92,0.5C1000.0,75.25,1029.25,71,1035.0,70.75c1.27-0.05,3.24-0.19,3.88,0.06" style="fill:none;stroke:#999;stroke-width:3" />
<path d="M1015.9,61.25c0.38,0.34,1.19,2.53,1.26,3.2c0.08,0.67-0.05,25.83-0.13,30.05" style="fill:none;stroke:#999;stroke-width:3" />
<path d="M1047.1,20.48c0.61,1.01,1.02,2.02,1.23,3.03c0.2,1.01,0.27,26.85,0.2,29.12C1048.25,63,1045.0,83.5,1035.75,93" style="fill:none;stroke:#999;stroke-width:3" />
<path d="M1049.55,21.49c2.45-0.25,19.06-3.45,20.88-3.74c3.27-0.5,4.49,3.28,4.08,4.79C1074.12,24,1073.91,71.26,1073.91,91.7c0,10.8-6.91,1.3-8.94-0.73" style="fill:none;stroke:black;stroke-width:3" />
<circle cx="1049.55" cy="21.49" r="5" stroke-width="0" fill="#FF2A00" opacity="0.7" />
<path d="M1106.88,27.38c0.76,0.5,4.15,0.67,4.92,0.5C1115.75,27,1133.0,23.75,1138.75,23.5c1.27-0.06,3.24-0.19,3.88,0.06" style="fill:none;stroke:#999;stroke-width:3" />
<path d="M1124.4,12.75c0.38,0.34,1.19,2.53,1.26,3.2c0.08,0.68-0.05,15.83-0.13,20.05" style="fill:none;stroke:#999;stroke-width:3" />
<path d="M1108.77,38.94c0.39,0.6,0.79,0.9,0.79,1.7c0,0.8,3.78,21.01,3.78,21.41c0,0.4,0.13,0.4,0.26,1.2" style="fill:none;stroke:#999;stroke-width:3" />
<path d="M1111.0,39.5c5.25-0.75,24.5-3.5,29.07-4.01c1.69-0.19,2.93,1.26,2.65,3.7c-0.52,4.59-1.97,13.31-2.97,18.31c-0.18,0.89-0.49,2.6-0.49,3.2" style="fill:none;stroke:#999;stroke-width:3" />
<path d="M1111.62,49.88c5.29-0.54,10.57-1.21,15.85-1.81c1.56-0.18,3.09-0.35,4.54-0.51" style="fill:none;stroke:#999;stroke-width:3" />
<path d="M1114.51,61c6.15-0.43,16.74-2.25,23.82-2.95" style="fill:none;stroke:#999;stroke-width:3" />
<path d="M1100.13,75.63c0.76,0.5,4.15,0.67,4.92,0.5C1109.0,75.25,1138.25,71,1144.0,70.75c1.27-0.05,3.24-0.19,3.88,0.06" style="fill:none;stroke:#999;stroke-width:3" />
<path d="M1124.9,61.25c0.38,0.34,1.19,2.53,1.26,3.2c0.08,0.67-0.05,25.83-0.13,30.05" style="fill:none;stroke:#999;stroke-width:3" />
<path d="M1156.1,20.48c0.61,1.01,1.02,2.02,1.23,3.03c0.2,1.01,0.27,26.85,0.2,29.12C1157.25,63,1154.0,83.5,1144.75,93" style="fill:none;stroke:#999;stroke-width:3" />
<path d="M1158.55,21.49c2.45-0.25,19.06-3.45,20.88-3.74c3.27-0.5,4.49,3.28,4.08,4.79C1183.12,24,1182.91,71.26,1182.91,91.7c0,10.8-6.91,1.3-8.94-0.73" style="fill:none;stroke:#999;stroke-width:3" />
<path d="M1158.55,40.92c3.88-0.55,7.25-1.18,11.12-1.78c1.06-0.16,2.12-0.33,3.16-0.48" style="fill:none;stroke:black;stroke-width:3" />
<circle cx="1158.55" cy="40.92" r="5" stroke-width="0" fill="#FF2A00" opacity="0.7" />
<path d="M1215.88,27.38c0.76,0.5,4.15,0.67,4.92,0.5C1224.75,27,1242.0,23.75,1247.75,23.5c1.27-0.06,3.24-0.19,3.88,0.06" style="fill:none;stroke:#999;stroke-width:3" />
<path d="M1233.4,12.75c0.38,0.34,1.19,2.53,1.26,3.2c0.08,0.68-0.05,15.83-0.13,20.05" style="fill:none;stroke:#999;stroke-width:3" />
<path d="M1217.77,38.94c0.39,0.6,0.79,0.9,0.79,1.7c0,0.8,3.78,21.01,3.78,21.41c0,0.4,0.13,0.4,0.26,1.2" style="fill:none;stroke:#999;stroke-width:3" />
<path d="M1220.0,39.5c5.25-0.75,24.5-3.5,29.07-4.01c1.69-0.19,2.93,1.26,2.65,3.7c-0.52,4.59-1.97,13.31-2.97,18.31c-0.18,0.89-0.49,2.6-0.49,3.2" style="fill:none;stroke:#999;stroke-width:3" />
<path d="M1220.62,49.88c5.29-0.54,10.57-1.21,15.85-1.81c1.56-0.18,3.09-0.35,4.54-0.51" style="fill:none;stroke:#999;stroke-width:3" />
<path d="M1223.51,61c6.15-0.43,16.74-2.25,23.82-2.95" style="fill:none;stroke:#999;stroke-width:3" />
<path d="M1209.13,75.63c0.76,0.5,4.15,0.67,4.92,0.5C1218.0,75.25,1247.25,71,1253.0,70.75c1.27-0.05,3.24-0.19,3.88,0.06" style="fill:none;stroke:#999;stroke-width:3" />
<path d="M1233.9,61.25c0.38,0.34,1.19,2.53,1.26,3.2c0.08,0.67-0.05,25.83-0.13,30.05" style="fill:none;stroke:#999;stroke-width:3" />
<path d="M1265.1,20.48c0.61,1.01,1.02,2.02,1.23,3.03c0.2,1.01,0.27,26.85,0.2,29.12C1266.25,63,1263.0,83.5,1253.75,93" style="fill:none;stroke:#999;stroke-width:3" />
<path d="M1267.55,21.49c2.45-0.25,19.06-3.45,20.88-3.74c3.27-0.5,4.49,3.28,4.08,4.79C1292.12,24,1291.91,71.26,1291.91,91.7c0,10.8-6.91,1.3-8.94-0.73" style="fill:none;stroke:#999;stroke-width:3" />
<path d="M1267.55,40.92c3.88-0.55,7.25-1.18,11.12-1.78c1.06-0.16,2.12-0.33,3.16-0.48" style="fill:none;stroke:#999;stroke-width:3" />
<path d="M1268.16,60.85c3.63-0.42,7.25-0.9,10.88-1.33c0.97-0.12,1.94-0.23,2.92-0.34" style="fill:none;stroke:black;stroke-width:3" />
<circle cx="1268.16" cy="60.85" r="5" stroke-width="0" fill="#FF2A00" opacity="0.7" />
</svg>