<svg width="763px" height="109px" viewBox="0 0 763px 109px" xmlns="http://www.w3.org/2000/svg" xmlns:xlink="http://www.w3.org/1999/xlink" xml:space="preserve" version="1.1"  baseProfile="full">
<line x1="1" y1="1" x2="762" y2="1" style="stroke:#ddd;stroke-width:2" />
<line x1="1" y1="1" x2="1" y2="108" style="stroke:#ddd;stroke-width:2" />
<line x1="1" y1="108" x2="762" y2="108" style="stroke:#ddd;stroke-width:2" />
<line x1="762" y1="1" x2="762" y2="108" style="stroke:#ddd;stroke-width:2" />
<line x1="109" y1="1" x2="109" y2="108" style="stroke:#ddd;stroke-width:2" />
<line x1="218" y1="1" x2="218" y2="108" style="stroke:#ddd;stroke-width:2" />
<line x1="327" y1="1" x2="327" y2="108" style="stroke:#ddd;stroke-width:2" />
<line x1="436" y1="1" x2="436" y2="108" style="stroke:#ddd;stroke-width:2" />
<line x1="545" y1="1" x2="545" y2="108" style="stroke:#ddd;stroke-width:2" />
<line x1="654" y1="1" x2="654" y2="108" style="stroke:#ddd;stroke-width:2" />
<line x1="1" y1="54" x2="762" y2="54" style="stroke:#ddd;stroke-width:2;stroke-dasharray:3 3" />
<line x1="55" y1="1" x2="55" y2="108" style="stroke:#ddd;stroke-width:2;stroke-dasharray:3 3" />
<line x1="164" y1="1" x2="164" y2="108" style="stroke:#ddd;stroke-width:2;stroke-dasharray:3 3" />
<line x1="273" y1="1" x2="273" y2="108" style="stroke:#ddd;stroke-width:2;stroke-dasharray:3 3" />
<line x1="382" y1="1" x2="382" y2="108" style="stroke:#ddd;stroke-width:2;stroke-dasharray:3 3" />
<line x1="491" y1="1" x2="491" y2="108" style="stroke:#ddd;stroke-width:2;stroke-dasharray:3 3" />
<line x1="600" y1="1" x2="600" y2="108" style="stroke:#ddd;stroke-width:2;stroke-dasharray:3 3" />
<line x1="709" y1="1" x2="709" y2="108" style="stroke:#ddd;stroke-width:2;stroke-dasharray:3 3" />
<path d="M26.79,28.33c0.98,0.39,2.78,0.43,3.76,0.39c10.22-0.44,36.19-4.21,46.34-4.42c1.64-0.03,2.62,0.18,3.44,0.38" style="fill:none;stroke:black;stroke-width:3" />
<circle cx="26.79" cy="28.33" r="5" stroke-width="0" fill="#FF2A00" opacity="0.7" />
<path d="M135.79,28.33c0.98,0.39,2.78,0.43,3.76,0.39c10.22-0.44,36.19-4.21,46.34-4.42c1.64-0.03,2.62,0.18,3.44,0.38" style="fill:none;stroke:#999;stroke-width:3" />
<path d="M140.0,38.25c2.45,1.86,6.14,7.11,6.75,10" style="fill:none;stroke:black;stroke-width:3" />
<circle cx="140.0" cy="38.25" r="5" stroke-width="0" fill="#FF2A00" opacity="0.7" />
<path d="M244.79,28.33c0.98,0.39,2.78,0.43,3.76,0.39c10.22-0.44,36.19-4.21,46.34-4.42c1.64-0.03,2.62,0.18,3.44,0.38" style="fill:none;stroke:#999;stroke-width:3" />
<path d="M249.0,38.25c2.45,1.86,6.14,7.11,6.75,10" style="fill:none;stroke:#999;stroke-width:3" />
<path d="M291.77,32.25c0.03,0.34,0.05,0.88-0.05,1.37c-0.63,2.89-4.26,9.24-9.22,13.13" style="fill:none;stroke:black;stroke-width:3" />
<circle cx="291.77" cy="32.25" r="5" stroke-width="0" fill="#FF2A00" opacity="0.7" />
<path d="M353.78999999999996,28.33c0.98,0.39,2.78,0.43,3.76,0.39c10.22-0.44,36.19-4.21,46.34-4.42c1.64-0.03,2.62,0.18,3.44,0.38" style="fill:none;stroke:#999;stroke-width:3" />
<path d="M358.0,38.25c2.45,1.86,6.14,7.11,6.75,10" style="fill:none;stroke:#999;stroke-width:3" />
<path d="M400.77,32.25c0.03,0.34,0.05,0.88-0.05,1.37c-0.63,2.89-4.26,9.24-9.22,13.13" style="fill:none;stroke:#999;stroke-width:3" />
<path d="M345.37,57.25c0.81,0.25,2.98,0.99,5.12,0.75c9.01-1,52.65-5.5,62.08-5c2.15,0.11,2.7-0.25,4.04,0" style="fill:none;stroke:black;stroke-width:3" />
<circle cx="345.37" cy="57.25" r="5" stroke-width="0" fill="#FF2A00" opacity="0.7" />
<path d="M462.78999999999996,28.33c0.98,0.39,2.78,0.43,3.76,0.39c10.22-0.44,36.19-4.21,46.34-4.42c1.64-0.03,2.62,0.18,3.44,0.38" style="fill:none;stroke:#999;stroke-width:3" />
<path d="M467.0,38.25c2.45,1.86,6.14,7.11,6.75,10" style="fill:none;stroke:#999;stroke-width:3" />
<path d="M509.77,32.25c0.03,0.34,0.05,0.88-0.05,1.37c-0.63,2.89-4.26,9.24-9.22,13.13" style="fill:none;stroke:#999;stroke-width:3" />
<path d="M454.37,57.25c0.81,0.25,2.98,0.99,5.12,0.75c9.01-1,52.65-5.5,62.08-5c2.15,0.11,2.7-0.25,4.04,0" style="fill:none;stroke:#999;stroke-width:3" />
<path d="M487.42,11.5c1.35,0.5,2.16,2.25,2.43,3.25s-0.27,77.72-0.27,79c0,12.5-5.95,4.62-8.58,2" style="fill:none;stroke:black;stroke-width:3" />
<circle cx="487.42" cy="11.5" r="5" stroke-width="0" fill="#FF2A00" opacity="0.7" />
<path d="M571.79,28.33c0.98,0.39,2.78,0.43,3.76,0.39c10.22-0.44,36.19-4.21,46.34-4.42c1.64-0.03,2.62,0.18,3.44,0.38" style="fill:none;stroke:#999;stroke-width:3" />
<path d="M576.0,38.25c2.45,1.86,6.14,7.11,6.75,10" style="fill:none;stroke:#999;stroke-width:3" />
<path d="M618.77,32.25c0.03,0.34,0.05,0.88-0.05,1.37c-0.63,2.89-4.26,9.24-9.22,13.13" style="fill:none;stroke:#999;stroke-width:3" />
<path d="M563.37,57.25c0.81,0.25,2.98,0.99,5.12,0.75c9.01-1,52.65-5.5,62.08-5c2.15,0.11,2.7-0.25,4.04,0" style="fill:none;stroke:#999;stroke-width:3" />
<path d="M596.4200000000001,11.5c1.35,0.5,2.16,2.25,2.43,3.25s-0.27,77.72-0.27,79c0,12.5-5.95,4.62-8.58,2" style="fill:none;stroke:#999;stroke-width:3" />
<path d="M596.42,55.25C590.23,67.07,575.18,83.68,561.25,90.5" style="fill:none;stroke:black;stroke-width:3" />
<circle cx="596.42" cy="55.25" r="5" stroke-width="0" fill="#FF2A00" opacity="0.7" />
<path d="M680.79,28.33c0.98,0.39,2.78,0.43,3.76,0.39c10.22-0.44,36.19-4.21,46.34-4.42c1.64-0.03,2.62,0.18,3.44,0.38" style="fill:none;stroke:#999;stroke-width:3" />
<path d="M685.0,38.25c2.45,1.86,6.14,7.11,6.75,10" style="fill:none;stroke:#999;stroke-width:3" />
<path d="M727.77,32.25c0.03,0.34,0.05,0.88-0.05,1.37c-0.63,2.89-4.26,9.24-9.22,13.13" style="fill:none;stroke:#999;stroke-width:3" />
<path d="M672.37,57.25c0.81,0.25,2.98,0.99,5.12,0.75c9.01-1,52.65-5.5,62.08-5c2.15,0.11,2.7-0.25,4.04,0" style="fill:none;stroke:#999;stroke-width:3" />
<path d="M705.4200000000001,11.5c1.35,0.5,2.16,2.25,2.43,3.25s-0.27,77.72-0.27,79c0,12.5-5.95,4.62-8.58,2" style="fill:none;stroke:#999;stroke-width:3" />
<path d="M705.42,55.25C699.23,67.07,684.18,83.68,670.25,90.5" style="fill:none;stroke:#999;stroke-width:3" />
<path d="M708.75,56.75c7.18,4.13,28.63,24.38,34.41,28.57c1.96,1.42,3.64,2.03,5.59,2.43" style="fill:none;stroke:black;stroke-width:3" />
<circle cx="708.75" cy="56.75" r="5" stroke-width="0" fill="#FF2A00" opacity="0.7" />
</svg>