<svg width="436px" height="109px" viewBox="0 0 436px 109px" xmlns="http://www.w3.org/2000/svg" xmlns:xlink="http://www.w3.org/1999/xlink" xml:space="preserve" version="1.1"  baseProfile="full">
<line x1="1" y1="1" x2="435" y2="1" style="stroke:#ddd;stroke-width:2" />
<line x1="1" y1="1" x2="1" y2="108" style="stroke:#ddd;stroke-width:2" />
<line x1="1" y1="108" x2="435" y2="108" style="stroke:#ddd;stroke-width:2" />
<line x1="435" y1="1" x2="435" y2="108" style="stroke:#ddd;stroke-width:2" />
<line x1="109" y1="1" x2="109" y2="108" style="stroke:#ddd;stroke-width:2" />
<line x1="218" y1="1" x2="218" y2="108" style="stroke:#ddd;stroke-width:2" />
<line x1="327" y1="1" x2="327" y2="108" style="stroke:#ddd;stroke-width:2" />
<line x1="1" y1="54" x2="435" y2="54" style="stroke:#ddd;stroke-width:2;stroke-dasharray:3 3" />
<line x1="55" y1="1" x2="55" y2="108" style="stroke:#ddd;stroke-width:2;stroke-dasharray:3 3" />
<line x1="164" y1="1" x2="164" y2="108" style="stroke:#ddd;stroke-width:2;stroke-dasharray:3 3" />
<line x1="273" y1="1" x2="273" y2="108" style="stroke:#ddd;stroke-width:2;stroke-dasharray:3 3" />
<line x1="382" y1="1" x2="382" y2="108" style="stroke:#ddd;stroke-width:2;stroke-dasharray:3 3" />
<path d="M29.5,21.22c0.95,0.52,4.04,0.15,5,0.03C45.0,20,65.25,17.5,76.0,16.96c1.46-0.07,2.79,0.1,4,0.54" style="fill:none;stroke:black;stroke-width:3" />
<circle cx="29.5" cy="21.22" r="5" stroke-width="0" fill="#FF2A00" opacity="0.7" />
<path d="M138.5,21.22c0.95,0.52,4.04,0.15,5,0.03C154.0,20,174.25,17.5,185.0,16.96c1.46-0.07,2.79,0.1,4,0.54" style="fill:none;stroke:#999;stroke-width:3" />
<path d="M138.25,55c0.94,0.57,4.04,0.35,5,0.25c10-1,27.75-3,39.5-4.02c1.17-0.1,3.75-0.23,5.5,0.27" style="fill:none;stroke:black;stroke-width:3" />
<circle cx="138.25" cy="55.0" r="5" stroke-width="0" fill="#FF2A00" opacity="0.7" />
<path d="M247.5,21.22c0.95,0.52,4.04,0.15,5,0.03C263.0,20,283.25,17.5,294.0,16.96c1.46-0.07,2.79,0.1,4,0.54" style="fill:none;stroke:#999;stroke-width:3" />
<path d="M247.25,55c0.94,0.57,4.04,0.35,5,0.25c10-1,27.75-3,39.5-4.02c1.17-0.1,3.75-0.23,5.5,0.27" style="fill:none;stroke:#999;stroke-width:3" />
<path d="M231.75,91.49c0.92,0.32,5.7,0.17,7.25,0.01c21.75-2.25,44.5-5,67.75-5.78c2.5-0.08,5.5,0.53,6.75,1.03" style="fill:none;stroke:black;stroke-width:3" />
<circle cx="231.75" cy="91.49" r="5" stroke-width="0" fill="#FF2A00" opacity="0.7" />
<path d="M356.5,21.22c0.95,0.52,4.04,0.15,5,0.03C372.0,20,392.25,17.5,403.0,16.96c1.46-0.07,2.79,0.1,4,0.54" style="fill:none;stroke:#999;stroke-width:3" />
<path d="M356.25,55c0.94,0.57,4.04,0.35,5,0.25c10-1,27.75-3,39.5-4.02c1.17-0.1,3.75-0.23,5.5,0.27" style="fill:none;stroke:#999;stroke-width:3" />
<path d="M340.75,91.49c0.92,0.32,5.7,0.17,7.25,0.01c21.75-2.25,44.5-5,67.75-5.78c2.5-0.08,5.5,0.53,6.75,1.03" style="fill:none;stroke:#999;stroke-width:3" />
<path d="M379.4,22c1.92,2.4,1.92,3.83,1.92,5.75c0,13.41-0.02,38.75-0.02,60.25" style="fill:none;stroke:black;stroke-width:3" />
<circle cx="379.4" cy="22.0" r="5" stroke-width="0" fill="#FF2A00" opacity="0.7" />
</svg>