<svg width="545px" height="109px" viewBox="0 0 545px 109px" xmlns="http://www.w3.org/2000/svg" xmlns:xlink="http://www.w3.org/1999/xlink" xml:space="preserve" version="1.1"  baseProfile="full">
<line x1="1" y1="1" x2="544" y2="1" style="stroke:#ddd;stroke-width:2" />
<line x1="1" y1="1" x2="1" y2="108" style="stroke:#ddd;stroke-width:2" />
<line x1="1" y1="108" x2="544" y2="108" style="stroke:#ddd;stroke-width:2" />
<line x1="544" y1="1" x2="544" y2="108" style="stroke:#ddd;stroke-width:2" />
<line x1="109" y1="1" x2="109" y2="108" style="stroke:#ddd;stroke-width:2" />
<line x1="218" y1="1" x2="218" y2="108" style="stroke:#ddd;stroke-width:2" />
<line x1="327" y1="1" x2="327" y2="108" style="stroke:#ddd;stroke-width:2" />
<line x1="436" y1="1" x2="436" y2="108" style="stroke:#ddd;stroke-width:2" />
<line x1="1" y1="54" x2="544" y2="54" style="stroke:#ddd;stroke-width:2;stroke-dasharray:3 3" />
<line x1="55" y1="1" x2="55" y2="108" style="stroke:#ddd;stroke-width:2;stroke-dasharray:3 3" />
<line x1="164" y1="1" x2="164" y2="108" style="stroke:#ddd;stroke-width:2;stroke-dasharray:3 3" />
<line x1="273" y1="1" x2="273" y2="108" style="stroke:#ddd;stroke-width:2;stroke-dasharray:3 3" />
<line x1="382" y1="1" x2="382" y2="108" style="stroke:#ddd;stroke-width:2;stroke-dasharray:3 3" />
<line x1="491" y1="1" x2="491" y2="108" style="stroke:#ddd;stroke-width:2;stroke-dasharray:3 3" />
<path d="M19.0,27.48c0.5,1.02,0.51,1.7,0.78,2.95C22.0,40.75,24.0,66.5,25.31,85.5" style="fill:none;stroke:black;stroke-width:3" />
<circle cx="19.0" cy="27.48" r="5" stroke-width="0" fill="#FF2A00" opacity="0.7" />
<path d="M128.0,27.48c0.5,1.02,0.51,1.7,0.78,2.95C131.0,40.75,133.0,66.5,134.31,85.5" style="fill:none;stroke:#999;stroke-width:3" />
<path d="M130.35,29.04C148.0,28,178.25,26.25,191.43,25.24c4.84-0.37,7.3,2.62,7.04,5.38C197.5,40.75,195.0,66,194.01,81.87" style="fill:none;stroke:black;stroke-width:3" />
<circle cx="130.35" cy="29.04" r="5" stroke-width="0" fill="#FF2A00" opacity="0.7" />
<path d="M237.0,27.48c0.5,1.02,0.51,1.7,0.78,2.95C240.0,40.75,242.0,66.5,243.31,85.5" style="fill:none;stroke:#999;stroke-width:3" />
<path d="M239.35,29.04C257.0,28,287.25,26.25,300.43,25.24c4.84-0.37,7.3,2.62,7.04,5.38C306.5,40.75,304.0,66,303.01,81.87" style="fill:none;stroke:#999;stroke-width:3" />
<path d="M272.5,28.75c-0.03,0.79-0.05,2.18-0.06,4c-0.06,11.96,0.31,42.66,0.31,47" style="fill:none;stroke:black;stroke-width:3" />
<circle cx="272.5" cy="28.75" r="5" stroke-width="0" fill="#FF2A00" opacity="0.7" />
<path d="M346.0,27.48c0.5,1.02,0.51,1.7,0.78,2.95C349.0,40.75,351.0,66.5,352.31,85.5" style="fill:none;stroke:#999;stroke-width:3" />
<path d="M348.35,29.04C366.0,28,396.25,26.25,409.43,25.24c4.84-0.37,7.3,2.62,7.04,5.38C415.5,40.75,413.0,66,412.01,81.87" style="fill:none;stroke:#999;stroke-width:3" />
<path d="M381.5,28.75c-0.03,0.79-0.05,2.18-0.06,4c-0.06,11.96,0.31,42.66,0.31,47" style="fill:none;stroke:#999;stroke-width:3" />
<path d="M351.5,55.5c13.67-1.19,27.43-1.76,41.13-2.52c1.65-0.09,3.25-0.18,4.78-0.26" style="fill:none;stroke:black;stroke-width:3" />
<circle cx="351.5" cy="55.5" r="5" stroke-width="0" fill="#FF2A00" opacity="0.7" />
<path d="M455.0,27.48c0.5,1.02,0.51,1.7,0.78,2.95C458.0,40.75,460.0,66.5,461.31,85.5" style="fill:none;stroke:#999;stroke-width:3" />
<path d="M457.35,29.04C475.0,28,505.25,26.25,518.4300000000001,25.24c4.84-0.37,7.3,2.62,7.04,5.38C524.5,40.75,522.0,66,521.01,81.87" style="fill:none;stroke:#999;stroke-width:3" />
<path d="M490.5,28.75c-0.03,0.79-0.05,2.18-0.06,4c-0.06,11.96,0.31,42.66,0.31,47" style="fill:none;stroke:#999;stroke-width:3" />
<path d="M460.5,55.5c13.67-1.19,27.43-1.76,41.13-2.52c1.65-0.09,3.25-0.18,4.78-0.26" style="fill:none;stroke:#999;stroke-width:3" />
<path d="M462.23,82.82c12.7,0,41.39-2.3,58.93-2.58" style="fill:none;stroke:black;stroke-width:3" />
<circle cx="462.23" cy="82.82" r="5" stroke-width="0" fill="#FF2A00" opacity="0.7" />
</svg>