<svg width="545px" height="109px" viewBox="0 0 545px 109px" xmlns="http://www.w3.org/2000/svg" xmlns:xlink="http://www.w3.org/1999/xlink" xml:space="preserve" version="1.1"  baseProfile="full">
<line x1="1" y1="1" x2="544" y2="1" style="stroke:#ddd;stroke-width:2" />
<line x1="1" y1="1" x2="1" y2="108" style="stroke:#ddd;stroke-width:2" />
<line x1="1" y1="108" x2="544" y2="108" style="stroke:#ddd;stroke-width:2" />
<line x1="544" y1="1" x2="544" y2="108" style="stroke:#ddd;stroke-width:2" />
<line x1="109" y1="1" x2="109" y2="108" style="stroke:#ddd;stroke-width:2" />
<line x1="218" y1="1" x2="218" y2="108" style="stroke:#ddd;stroke-width:2" />
<line x1="327" y1="1" x2="327" y2="108" style="stroke:#ddd;stroke-width:2" />
<line x1="436" y1="1" x2="436" y2="108" style="stroke:#ddd;stroke-width:2" />
<line x1="1" y1="54" x2="544" y2="54" style="stroke:#ddd;stroke-width:2;stroke-dasharray:3 3" />
<line x1="55" y1="1" x2="55" y2="108" style="stroke:#ddd;stroke-width:2;stroke-dasharray:3 3" />
<line x1="164" y1="1" x2="164" y2="108" style="stroke:#ddd;stroke-width:2;stroke-dasharray:3 3" />
<line x1="273" y1="1" x2="273" y2="108" style="stroke:#ddd;stroke-width:2;stroke-dasharray:3 3" />
<line x1="382" y1="1" x2="382" y2="108" style="stroke:#ddd;stroke-width:2;stroke-dasharray:3 3" />
<line x1="491" y1="1" x2="491" y2="108" style="stroke:#ddd;stroke-width:2;stroke-dasharray:3 3" />
<path d="M54.25,13.25c0.74,0.98,1.01,2.23,0.68,3.04c-2.43,5.96-9.98,17.14-18.12,23.93" style="fill:none;stroke:black;stroke-width:3" />
<circle cx="54.25" cy="13.25" r="5" stroke-width="0" fill="#FF2A00" opacity="0.7" />
<path d="M163.25,13.25c0.74,0.98,1.01,2.23,0.68,3.04c-2.43,5.96-9.98,17.14-18.12,23.93" style="fill:none;stroke:#999;stroke-width:3" />
<path d="M134.25,40.97c0.94,1.37,1.88,2.06,1.88,3.88c0,1.83,0.62,43.9,1,52.9" style="fill:none;stroke:black;stroke-width:3" />
<circle cx="134.25" cy="40.97" r="5" stroke-width="0" fill="#FF2A00" opacity="0.7" />
<path d="M272.25,13.25c0.74,0.98,1.01,2.23,0.68,3.04c-2.43,5.96-9.98,17.14-18.12,23.93" style="fill:none;stroke:#999;stroke-width:3" />
<path d="M243.25,40.97c0.94,1.37,1.88,2.06,1.88,3.88c0,1.83,0.62,43.9,1,52.9" style="fill:none;stroke:#999;stroke-width:3" />
<path d="M245.69,44.2c5.31-0.23,48.17-5.31,52.99-5.7c3.06-0.25,4.31,1.5,4.31,4.38c-0.01,4.93-2.74,38.37-3.74,53.46" style="fill:none;stroke:black;stroke-width:3" />
<circle cx="245.69" cy="44.2" r="5" stroke-width="0" fill="#FF2A00" opacity="0.7" />
<path d="M381.25,13.25c0.74,0.98,1.01,2.23,0.68,3.04c-2.43,5.96-9.98,17.14-18.12,23.93" style="fill:none;stroke:#999;stroke-width:3" />
<path d="M352.25,40.97c0.94,1.37,1.88,2.06,1.88,3.88c0,1.83,0.62,43.9,1,52.9" style="fill:none;stroke:#999;stroke-width:3" />
<path d="M354.69,44.2c5.31-0.23,48.17-5.31,52.99-5.7c3.06-0.25,4.31,1.5,4.31,4.38c-0.01,4.93-2.74,38.37-3.74,53.46" style="fill:none;stroke:#999;stroke-width:3" />
<path d="M354.63,67.69c9.63-0.59,19.24-1.57,28.85-2.4c2.86-0.25,5.7-0.49,8.42-0.71" style="fill:none;stroke:black;stroke-width:3" />
<circle cx="354.63" cy="67.69" r="5" stroke-width="0" fill="#FF2A00" opacity="0.7" />
<path d="M490.25,13.25c0.74,0.98,1.01,2.23,0.68,3.04c-2.43,5.96-9.98,17.14-18.12,23.93" style="fill:none;stroke:#999;stroke-width:3" />
<path d="M461.25,40.97c0.94,1.37,1.88,2.06,1.88,3.88c0,1.83,0.62,43.9,1,52.9" style="fill:none;stroke:#999;stroke-width:3" />
<path d="M463.69,44.2c5.31-0.23,48.17-5.31,52.99-5.7c3.06-0.25,4.31,1.5,4.31,4.38c-0.01,4.93-2.74,38.37-3.74,53.46" style="fill:none;stroke:#999;stroke-width:3" />
<path d="M463.63,67.69c9.63-0.59,19.24-1.57,28.85-2.4c2.86-0.25,5.7-0.49,8.42-0.71" style="fill:none;stroke:#999;stroke-width:3" />
<path d="M464.69,94.24C478.0,93.5,503.25,91.75,517.44,91.41" style="fill:none;stroke:black;stroke-width:3" />
<circle cx="464.69" cy="94.24" r="5" stroke-width="0" fill="#FF2A00" opacity="0.7" />
</svg>