<svg width="545px" height="109px" viewBox="0 0 545px 109px" xmlns="http://www.w3.org/2000/svg" xmlns:xlink="http://www.w3.org/1999/xlink" xml:space="preserve" version="1.1"  baseProfile="full">
<line x1="1" y1="1" x2="544" y2="1" style="stroke:#ddd;stroke-width:2" />
<line x1="1" y1="1" x2="1" y2="108" style="stroke:#ddd;stroke-width:2" />
<line x1="1" y1="108" x2="544" y2="108" style="stroke:#ddd;stroke-width:2" />
<line x1="544" y1="1" x2="544" y2="108" style="stroke:#ddd;stroke-width:2" />
<line x1="109" y1="1" x2="109" y2="108" style="stroke:#ddd;stroke-width:2" />
<line x1="218" y1="1" x2="218" y2="108" style="stroke:#ddd;stroke-width:2" />
<line x1="327" y1="1" x2="327" y2="108" style="stroke:#ddd;stroke-width:2" />
<line x1="436" y1="1" x2="436" y2="108" style="stroke:#ddd;stroke-width:2" />
<line x1="1" y1="54" x2="544" y2="54" style="stroke:#ddd;stroke-width:2;stroke-dasharray:3 3" />
<line x1="55" y1="1" x2="55" y2="108" style="stroke:#ddd;stroke-width:2;stroke-dasharray:3 3" />
<line x1="164" y1="1" x2="164" y2="108" style="stroke:#ddd;stroke-width:2;stroke-dasharray:3 3" />
<line x1="273" y1="1" x2="273" y2="108" style="stroke:#ddd;stroke-width:2;stroke-dasharray:3 3" />
<line x1="382" y1="1" x2="382" y2="108" style="stroke:#ddd;stroke-width:2;stroke-dasharray:3 3" />
<line x1="491" y1="1" x2="491" y2="108" style="stroke:#ddd;stroke-width:2;stroke-dasharray:3 3" />
<path d="M30.0,19.55c0.76,1.7,1.86,2.96,1.86,5.22s-0.5,67.21-0.5,68.34" style="fill:none;stroke:black;stroke-width:3" />
<circle cx="30.0" cy="19.55" r="5" stroke-width="0" fill="#FF2A00" opacity="0.7" />
<path d="M139.0,19.55c0.76,1.7,1.86,2.96,1.86,5.22s-0.5,67.21-0.5,68.34" style="fill:none;stroke:#999;stroke-width:3" />
<path d="M140.62,21.75c4.28-0.28,38.43-4.4,42.33-4.74c3.25-0.28,5.82,1.58,5.54,3.68c-0.35,2.66-0.77,40.43-0.76,65.32c0,2.56-0.24,4-0.49,6.5" style="fill:none;stroke:black;stroke-width:3" />
<circle cx="140.62" cy="21.75" r="5" stroke-width="0" fill="#FF2A00" opacity="0.7" />
<path d="M248.0,19.55c0.76,1.7,1.86,2.96,1.86,5.22s-0.5,67.21-0.5,68.34" style="fill:none;stroke:#999;stroke-width:3" />
<path d="M249.62,21.75c4.28-0.28,38.43-4.4,42.33-4.74c3.25-0.28,5.82,1.58,5.54,3.68c-0.35,2.66-0.77,40.43-0.76,65.32c0,2.56-0.24,4-0.49,6.5" style="fill:none;stroke:#999;stroke-width:3" />
<path d="M251.05,43.14c7.74-0.35,15.47-1.24,23.18-1.94c2.34-0.21,4.68-0.42,6.91-0.62" style="fill:none;stroke:black;stroke-width:3" />
<circle cx="251.05" cy="43.14" r="5" stroke-width="0" fill="#FF2A00" opacity="0.7" />
<path d="M357.0,19.55c0.76,1.7,1.86,2.96,1.86,5.22s-0.5,67.21-0.5,68.34" style="fill:none;stroke:#999;stroke-width:3" />
<path d="M358.62,21.75c4.28-0.28,38.43-4.4,42.33-4.74c3.25-0.28,5.82,1.58,5.54,3.68c-0.35,2.66-0.77,40.43-0.76,65.32c0,2.56-0.24,4-0.49,6.5" style="fill:none;stroke:#999;stroke-width:3" />
<path d="M360.05,43.14c7.74-0.35,15.47-1.24,23.18-1.94c2.34-0.21,4.68-0.42,6.91-0.62" style="fill:none;stroke:#999;stroke-width:3" />
<path d="M360.4,65.95c7.43-0.62,16.85-1.4,24.28-2.05c2.07-0.18,4.14-0.36,6.16-0.52" style="fill:none;stroke:black;stroke-width:3" />
<circle cx="360.4" cy="65.95" r="5" stroke-width="0" fill="#FF2A00" opacity="0.7" />
<path d="M466.0,19.55c0.76,1.7,1.86,2.96,1.86,5.22s-0.5,67.21-0.5,68.34" style="fill:none;stroke:#999;stroke-width:3" />
<path d="M467.62,21.75c4.28-0.28,38.43-4.4,42.33-4.74c3.25-0.28,5.82,1.58,5.54,3.68c-0.35,2.66-0.77,40.43-0.76,65.32c0,2.56-0.24,4-0.49,6.5" style="fill:none;stroke:#999;stroke-width:3" />
<path d="M469.05,43.14c7.74-0.35,15.47-1.24,23.18-1.94c2.34-0.21,4.68-0.42,6.91-0.62" style="fill:none;stroke:#999;stroke-width:3" />
<path d="M469.4,65.95c7.43-0.62,16.85-1.4,24.28-2.05c2.07-0.18,4.14-0.36,6.16-0.52" style="fill:none;stroke:#999;stroke-width:3" />
<path d="M468.25,90.5C478.0,90,503.27,87.97,514.29,87.97" style="fill:none;stroke:black;stroke-width:3" />
<circle cx="468.25" cy="90.5" r="5" stroke-width="0" fill="#FF2A00" opacity="0.7" />
</svg>