<svg width="981px" height="109px" viewBox="0 0 981px 109px" xmlns="http://www.w3.org/2000/svg" xmlns:xlink="http://www.w3.org/1999/xlink" xml:space="preserve" version="1.1"  baseProfile="full">
<line x1="1" y1="1" x2="980" y2="1" style="stroke:#ddd;stroke-width:2" />
<line x1="1" y1="1" x2="1" y2="108" style="stroke:#ddd;stroke-width:2" />
<line x1="1" y1="108" x2="980" y2="108" style="stroke:#ddd;stroke-width:2" />
<line x1="980" y1="1" x2="980" y2="108" style="stroke:#ddd;stroke-width:2" />
<line x1="109" y1="1" x2="109" y2="108" style="stroke:#ddd;stroke-width:2" />
<line x1="218" y1="1" x2="218" y2="108" style="stroke:#ddd;stroke-width:2" />
<line x1="327" y1="1" x2="327" y2="108" style="stroke:#ddd;stroke-width:2" />
<line x1="436" y1="1" x2="436" y2="108" style="stroke:#ddd;stroke-width:2" />
<line x1="545" y1="1" x2="545" y2="108" style="stroke:#ddd;stroke-width:2" />
<line x1="654" y1="1" x2="654" y2="108" style="stroke:#ddd;stroke-width:2" />
<line x1="763" y1="1" x2="763" y2="108" style="stroke:#ddd;stroke-width:2" />
<line x1="872" y1="1" x2="872" y2="108" style="stroke:#ddd;stroke-width:2" />
<line x1="1" y1="54" x2="980" y2="54" style="stroke:#ddd;stroke-width:2;stroke-dasharray:3 3" />
<line x1="55" y1="1" x2="55" y2="108" style="stroke:#ddd;stroke-width:2;stroke-dasharray:3 3" />
<line x1="164" y1="1" x2="164" y2="108" style="stroke:#ddd;stroke-width:2;stroke-dasharray:3 3" />
<line x1="273" y1="1" x2="273" y2="108" style="stroke:#ddd;stroke-width:2;stroke-dasharray:3 3" />
<line x1="382" y1="1" x2="382" y2="108" style="stroke:#ddd;stroke-width:2;stroke-dasharray:3 3" />
<line x1="491" y1="1" x2="491" y2="108" style="stroke:#ddd;stroke-width:2;stroke-dasharray:3 3" />
<line x1="600" y1="1" x2="600" y2="108" style="stroke:#ddd;stroke-width:2;stroke-dasharray:3 3" />
<line x1="709" y1="1" x2="709" y2="108" style="stroke:#ddd;stroke-width:2;stroke-dasharray:3 3" />
<line x1="818" y1="1" x2="818" y2="108" style="stroke:#ddd;stroke-width:2;stroke-dasharray:3 3" />
<line x1="927" y1="1" x2="927" y2="108" style="stroke:#ddd;stroke-width:2;stroke-dasharray:3 3" />
<path d="M21.0,27.77c1.29,0.53,2.82,0.78,4.1,0.53c5.24-1.02,35.84-4.89,60.62-5.03c2.16-0.01,3.45,0.25,4.53,0.51" style="fill:none;stroke:black;stroke-width:3" />
<circle cx="21.0" cy="27.77" r="5" stroke-width="0" fill="#FF2A00" opacity="0.7" />
<path d="M130.0,27.77c1.29,0.53,2.82,0.78,4.1,0.53c5.24-1.02,35.84-4.89,60.62-5.03c2.16-0.01,3.45,0.25,4.53,0.51" style="fill:none;stroke:#999;stroke-width:3" />
<path d="M145.5,15.5c1.33,1.27,1.76,1.66,1.9,2.44c1.33,7.33,2.47,14.89,2.85,17.56" style="fill:none;stroke:black;stroke-width:3" />
<circle cx="145.5" cy="15.5" r="5" stroke-width="0" fill="#FF2A00" opacity="0.7" />
<path d="M239.0,27.77c1.29,0.53,2.82,0.78,4.1,0.53c5.24-1.02,35.84-4.89,60.62-5.03c2.16-0.01,3.45,0.25,4.53,0.51" style="fill:none;stroke:#999;stroke-width:3" />
<path d="M254.5,15.5c1.33,1.27,1.76,1.66,1.9,2.44c1.33,7.33,2.47,14.89,2.85,17.56" style="fill:none;stroke:#999;stroke-width:3" />
<path d="M285.75,12c0.28,1.12,0.63,1.95,0.33,3.32c-1.8,8.06-2.62,12.09-4.58,19.68" style="fill:none;stroke:black;stroke-width:3" />
<circle cx="285.75" cy="12.0" r="5" stroke-width="0" fill="#FF2A00" opacity="0.7" />
<path d="M348.0,27.77c1.29,0.53,2.82,0.78,4.1,0.53c5.24-1.02,35.84-4.89,60.62-5.03c2.16-0.01,3.45,0.25,4.53,0.51" style="fill:none;stroke:#999;stroke-width:3" />
<path d="M363.5,15.5c1.33,1.27,1.76,1.66,1.9,2.44c1.33,7.33,2.47,14.89,2.85,17.56" style="fill:none;stroke:#999;stroke-width:3" />
<path d="M394.75,12c0.28,1.12,0.63,1.95,0.33,3.32c-1.8,8.06-2.62,12.09-4.58,19.68" style="fill:none;stroke:#999;stroke-width:3" />
<path d="M378.51,34c0.1,0.86,0.35,2.28-0.19,3.45c-4.07,8.8-14.59,24.78-34.07,33.05" style="fill:none;stroke:black;stroke-width:3" />
<circle cx="378.51" cy="34.0" r="5" stroke-width="0" fill="#FF2A00" opacity="0.7" />
<path d="M457.0,27.77c1.29,0.53,2.82,0.78,4.1,0.53c5.24-1.02,35.84-4.89,60.62-5.03c2.16-0.01,3.45,0.25,4.53,0.51" style="fill:none;stroke:#999;stroke-width:3" />
<path d="M472.5,15.5c1.33,1.27,1.76,1.66,1.9,2.44c1.33,7.33,2.47,14.89,2.85,17.56" style="fill:none;stroke:#999;stroke-width:3" />
<path d="M503.75,12c0.28,1.12,0.63,1.95,0.33,3.32c-1.8,8.06-2.62,12.09-4.58,19.68" style="fill:none;stroke:#999;stroke-width:3" />
<path d="M487.51,34c0.1,0.86,0.35,2.28-0.19,3.45c-4.07,8.8-14.59,24.78-34.07,33.05" style="fill:none;stroke:#999;stroke-width:3" />
<path d="M488.5,38.25c6.75,5,29.01,21.43,35.04,25.11c2.04,1.25,4.67,1.78,6.71,2.14" style="fill:none;stroke:black;stroke-width:3" />
<circle cx="488.5" cy="38.25" r="5" stroke-width="0" fill="#FF2A00" opacity="0.7" />
<path d="M566.0,27.77c1.29,0.53,2.82,0.78,4.1,0.53c5.24-1.02,35.84-4.89,60.62-5.03c2.16-0.01,3.45,0.25,4.53,0.51" style="fill:none;stroke:#999;stroke-width:3" />
<path d="M581.5,15.5c1.33,1.27,1.76,1.66,1.9,2.44c1.33,7.33,2.47,14.89,2.85,17.56" style="fill:none;stroke:#999;stroke-width:3" />
<path d="M612.75,12c0.28,1.12,0.63,1.95,0.33,3.32c-1.8,8.06-2.62,12.09-4.58,19.68" style="fill:none;stroke:#999;stroke-width:3" />
<path d="M596.51,34c0.1,0.86,0.35,2.28-0.19,3.45c-4.07,8.8-14.59,24.78-34.07,33.05" style="fill:none;stroke:#999;stroke-width:3" />
<path d="M597.5,38.25c6.75,5,29.01,21.43,35.04,25.11c2.04,1.25,4.67,1.78,6.71,2.14" style="fill:none;stroke:#999;stroke-width:3" />
<path d="M579.78,68.21c0.44,0.15,1.61,0.38,2.77,0.44c3.21,0.15,26.35-3.19,34.37-3.92c1.16-0.11,1.46-0.15,2.19,0" style="fill:none;stroke:black;stroke-width:3" />
<circle cx="579.78" cy="68.21" r="5" stroke-width="0" fill="#FF2A00" opacity="0.7" />
<path d="M675.0,27.77c1.29,0.53,2.82,0.78,4.1,0.53c5.24-1.02,35.84-4.89,60.62-5.03c2.16-0.01,3.45,0.25,4.53,0.51" style="fill:none;stroke:#999;stroke-width:3" />
<path d="M690.5,15.5c1.33,1.27,1.76,1.66,1.9,2.44c1.33,7.33,2.47,14.89,2.85,17.56" style="fill:none;stroke:#999;stroke-width:3" />
<path d="M721.75,12c0.28,1.12,0.63,1.95,0.33,3.32c-1.8,8.06-2.62,12.09-4.58,19.68" style="fill:none;stroke:#999;stroke-width:3" />
<path d="M705.51,34c0.1,0.86,0.35,2.28-0.19,3.45c-4.07,8.8-14.59,24.78-34.07,33.05" style="fill:none;stroke:#999;stroke-width:3" />
<path d="M706.5,38.25c6.75,5,29.01,21.43,35.04,25.11c2.04,1.25,4.67,1.78,6.71,2.14" style="fill:none;stroke:#999;stroke-width:3" />
<path d="M688.78,68.21c0.44,0.15,1.61,0.38,2.77,0.44c3.21,0.15,26.35-3.19,34.37-3.92c1.16-0.11,1.46-0.15,2.19,0" style="fill:none;stroke:#999;stroke-width:3" />
<path d="M706.57,54.44c1.18,1.31,1.31,1.81,1.31,4.9c0,0.6-0.15,29.26-0.15,32.91c0,11.75-4.36,4.12-5.98,2.5" style="fill:none;stroke:black;stroke-width:3" />
<circle cx="706.57" cy="54.44" r="5" stroke-width="0" fill="#FF2A00" opacity="0.7" />
<path d="M784.0,27.77c1.29,0.53,2.82,0.78,4.1,0.53c5.24-1.02,35.84-4.89,60.62-5.03c2.16-0.01,3.45,0.25,4.53,0.51" style="fill:none;stroke:#999;stroke-width:3" />
<path d="M799.5,15.5c1.33,1.27,1.76,1.66,1.9,2.44c1.33,7.33,2.47,14.89,2.85,17.56" style="fill:none;stroke:#999;stroke-width:3" />
<path d="M830.75,12c0.28,1.12,0.63,1.95,0.33,3.32c-1.8,8.06-2.62,12.09-4.58,19.68" style="fill:none;stroke:#999;stroke-width:3" />
<path d="M814.51,34c0.1,0.86,0.35,2.28-0.19,3.45c-4.07,8.8-14.59,24.78-34.07,33.05" style="fill:none;stroke:#999;stroke-width:3" />
<path d="M815.5,38.25c6.75,5,29.01,21.43,35.04,25.11c2.04,1.25,4.67,1.78,6.71,2.14" style="fill:none;stroke:#999;stroke-width:3" />
<path d="M797.78,68.21c0.44,0.15,1.61,0.38,2.77,0.44c3.21,0.15,26.35-3.19,34.37-3.92c1.16-0.11,1.46-0.15,2.19,0" style="fill:none;stroke:#999;stroke-width:3" />
<path d="M815.57,54.44c1.18,1.31,1.31,1.81,1.31,4.9c0,0.6-0.15,29.26-0.15,32.91c0,11.75-4.36,4.12-5.98,2.5" style="fill:none;stroke:#999;stroke-width:3" />
<path d="M801.52,78.14c0.03,0.36,0.07,0.93-0.07,1.45c-0.8,3.06-5.4,9.79-11.7,13.9" style="fill:none;stroke:black;stroke-width:3" />
<circle cx="801.52" cy="78.14" r="5" stroke-width="0" fill="#FF2A00" opacity="0.7" />
<path d="M893.0,27.77c1.29,0.53,2.82,0.78,4.1,0.53c5.24-1.02,35.84-4.89,60.62-5.03c2.16-0.01,3.45,0.25,4.53,0.51" style="fill:none;stroke:#999;stroke-width:3" />
<path d="M908.5,15.5c1.33,1.27,1.76,1.66,1.9,2.44c1.33,7.33,2.47,14.89,2.85,17.56" style="fill:none;stroke:#999;stroke-width:3" />
<path d="M939.75,12c0.28,1.12,0.63,1.95,0.33,3.32c-1.8,8.06-2.62,12.09-4.58,19.68" style="fill:none;stroke:#999;stroke-width:3" />
<path d="M923.51,34c0.1,0.86,0.35,2.28-0.19,3.45c-4.07,8.8-14.59,24.78-34.07,33.05" style="fill:none;stroke:#999;stroke-width:3" />
<path d="M924.5,38.25c6.75,5,29.01,21.43,35.04,25.11c2.04,1.25,4.67,1.78,6.71,2.14" style="fill:none;stroke:#999;stroke-width:3" />
<path d="M906.78,68.21c0.44,0.15,1.61,0.38,2.77,0.44c3.21,0.15,26.35-3.19,34.37-3.92c1.16-0.11,1.46-0.15,2.19,0" style="fill:none;stroke:#999;stroke-width:3" />
<path d="M924.57,54.44c1.18,1.31,1.31,1.81,1.31,4.9c0,0.6-0.15,29.26-0.15,32.91c0,11.75-4.36,4.12-5.98,2.5" style="fill:none;stroke:#999;stroke-width:3" />
<path d="M910.52,78.14c0.03,0.36,0.07,0.93-0.07,1.45c-0.8,3.06-5.4,9.79-11.7,13.9" style="fill:none;stroke:#999;stroke-width:3" />
<path d="M941.5,79.5c4.17,2.38,10.77,9.77,11.81,13.47" style="fill:none;stroke:black;stroke-width:3" />
<circle cx="941.5" cy="79.5" r="5" stroke-width="0" fill="#FF2A00" opacity="0.7" />
</svg>