<svg width="872px" height="109px" viewBox="0 0 872px 109px" xmlns="http://www.w3.org/2000/svg" xmlns:xlink="http://www.w3.org/1999/xlink" xml:space="preserve" version="1.1"  baseProfile="full">
<line x1="1" y1="1" x2="871" y2="1" style="stroke:#ddd;stroke-width:2" />
<line x1="1" y1="1" x2="1" y2="108" style="stroke:#ddd;stroke-width:2" />
<line x1="1" y1="108" x2="871" y2="108" style="stroke:#ddd;stroke-width:2" />
<line x1="871" y1="1" x2="871" y2="108" style="stroke:#ddd;stroke-width:2" />
<line x1="109" y1="1" x2="109" y2="108" style="stroke:#ddd;stroke-width:2" />
<line x1="218" y1="1" x2="218" y2="108" style="stroke:#ddd;stroke-width:2" />
<line x1="327" y1="1" x2="327" y2="108" style="stroke:#ddd;stroke-width:2" />
<line x1="436" y1="1" x2="436" y2="108" style="stroke:#ddd;stroke-width:2" />
<line x1="545" y1="1" x2="545" y2="108" style="stroke:#ddd;stroke-width:2" />
<line x1="654" y1="1" x2="654" y2="108" style="stroke:#ddd;stroke-width:2" />
<line x1="763" y1="1" x2="763" y2="108" style="stroke:#ddd;stroke-width:2" />
<line x1="1" y1="54" x2="871" y2="54" style="stroke:#ddd;stroke-width:2;stroke-dasharray:3 3" />
<line x1="55" y1="1" x2="55" y2="108" style="stroke:#ddd;stroke-width:2;stroke-dasharray:3 3" />
<line x1="164" y1="1" x2="164" y2="108" style="stroke:#ddd;stroke-width:2;stroke-dasharray:3 3" />
<line x1="273" y1="1" x2="273" y2="108" style="stroke:#ddd;stroke-width:2;stroke-dasharray:3 3" />
<line x1="382" y1="1" x2="382" y2="108" style="stroke:#ddd;stroke-width:2;stroke-dasharray:3 3" />
<line x1="491" y1="1" x2="491" y2="108" style="stroke:#ddd;stroke-width:2;stroke-dasharray:3 3" />
<line x1="600" y1="1" x2="600" y2="108" style="stroke:#ddd;stroke-width:2;stroke-dasharray:3 3" />
<line x1="709" y1="1" x2="709" y2="108" style="stroke:#ddd;stroke-width:2;stroke-dasharray:3 3" />
<line x1="818" y1="1" x2="818" y2="108" style="stroke:#ddd;stroke-width:2;stroke-dasharray:3 3" />
<path d="M32.63,21.67c0.94,0.38,2.66,0.46,3.6,0.38c6.77-0.55,31.52-2.8,37.36-3.38c1.56-0.16,2.21-0.09,3.03-0.02" style="fill:none;stroke:black;stroke-width:3" />
<circle cx="32.63" cy="21.67" r="5" stroke-width="0" fill="#FF2A00" opacity="0.7" />
<path d="M141.63,21.67c0.94,0.38,2.66,0.46,3.6,0.38c6.77-0.55,31.52-2.8,37.36-3.38c1.56-0.16,2.21-0.09,3.03-0.02" style="fill:none;stroke:#999;stroke-width:3" />
<path d="M160.56,8.38c0.76,0.26,2.36,1.91,2.51,2.42c0.15,0.51,0.35,25.06,0.43,33.19" style="fill:none;stroke:black;stroke-width:3" />
<circle cx="160.56" cy="8.38" r="5" stroke-width="0" fill="#FF2A00" opacity="0.7" />
<path d="M250.63,21.67c0.94,0.38,2.66,0.46,3.6,0.38c6.77-0.55,31.52-2.8,37.36-3.38c1.56-0.16,2.21-0.09,3.03-0.02" style="fill:none;stroke:#999;stroke-width:3" />
<path d="M269.56,8.38c0.76,0.26,2.36,1.91,2.51,2.42c0.15,0.51,0.35,25.06,0.43,33.19" style="fill:none;stroke:#999;stroke-width:3" />
<path d="M252.38,33.28c0.94,0.28,2.66,0.34,3.6,0.28c6.77-0.4,27.52-3.49,33.36-3.92c1.56-0.11,2.71-0.06,3.53-0.02" style="fill:none;stroke:black;stroke-width:3" />
<circle cx="252.38" cy="33.28" r="5" stroke-width="0" fill="#FF2A00" opacity="0.7" />
<path d="M359.63,21.67c0.94,0.38,2.66,0.46,3.6,0.38c6.77-0.55,31.52-2.8,37.36-3.38c1.56-0.16,2.21-0.09,3.03-0.02" style="fill:none;stroke:#999;stroke-width:3" />
<path d="M378.56,8.38c0.76,0.26,2.36,1.91,2.51,2.42c0.15,0.51,0.35,25.06,0.43,33.19" style="fill:none;stroke:#999;stroke-width:3" />
<path d="M361.38,33.28c0.94,0.28,2.66,0.34,3.6,0.28c6.77-0.4,27.52-3.49,33.36-3.92c1.56-0.11,2.71-0.06,3.53-0.02" style="fill:none;stroke:#999;stroke-width:3" />
<path d="M342.63,47.5c1.47,0.3,4.15,0.36,5.62,0.3c10.56-0.43,56.76-6.05,68.52-6.3c2.43-0.05,5.98-0.25,7.73,0.48" style="fill:none;stroke:black;stroke-width:3" />
<circle cx="342.63" cy="47.5" r="5" stroke-width="0" fill="#FF2A00" opacity="0.7" />
<path d="M468.63,21.67c0.94,0.38,2.66,0.46,3.6,0.38c6.77-0.55,31.52-2.8,37.36-3.38c1.56-0.16,2.21-0.09,3.03-0.02" style="fill:none;stroke:#999;stroke-width:3" />
<path d="M487.56,8.38c0.76,0.26,2.36,1.91,2.51,2.42c0.15,0.51,0.35,25.06,0.43,33.19" style="fill:none;stroke:#999;stroke-width:3" />
<path d="M470.38,33.28c0.94,0.28,2.66,0.34,3.6,0.28c6.77-0.4,27.52-3.49,33.36-3.92c1.56-0.11,2.71-0.06,3.53-0.02" style="fill:none;stroke:#999;stroke-width:3" />
<path d="M451.63,47.5c1.47,0.3,4.15,0.36,5.62,0.3c10.56-0.43,56.76-6.05,68.52-6.3c2.43-0.05,5.98-0.25,7.73,0.48" style="fill:none;stroke:#999;stroke-width:3" />
<path d="M472.51,54.94c0.67,0.59,1.34,2.14,1.34,2.77c0,5.8,0.65,27.55-0.35,40.05" style="fill:none;stroke:black;stroke-width:3" />
<circle cx="472.51" cy="54.94" r="5" stroke-width="0" fill="#FF2A00" opacity="0.7" />
<path d="M577.63,21.67c0.94,0.38,2.66,0.46,3.6,0.38c6.77-0.55,31.52-2.8,37.36-3.38c1.56-0.16,2.21-0.09,3.03-0.02" style="fill:none;stroke:#999;stroke-width:3" />
<path d="M596.56,8.38c0.76,0.26,2.36,1.91,2.51,2.42c0.15,0.51,0.35,25.06,0.43,33.19" style="fill:none;stroke:#999;stroke-width:3" />
<path d="M579.38,33.28c0.94,0.28,2.66,0.34,3.6,0.28c6.77-0.4,27.52-3.49,33.36-3.92c1.56-0.11,2.71-0.06,3.53-0.02" style="fill:none;stroke:#999;stroke-width:3" />
<path d="M560.63,47.5c1.47,0.3,4.15,0.36,5.62,0.3c10.56-0.43,56.76-6.05,68.52-6.3c2.43-0.05,5.98-0.25,7.73,0.48" style="fill:none;stroke:#999;stroke-width:3" />
<path d="M581.51,54.94c0.67,0.59,1.34,2.14,1.34,2.77c0,5.8,0.65,27.55-0.35,40.05" style="fill:none;stroke:#999;stroke-width:3" />
<path d="M583.2,56.03c2.69-0.15,28.34-2.63,30.33-2.8c3.58-0.29,4.93,1.91,4.48,2.8c-0.43,0.85-0.67,25.98-0.67,37.9c0,10.58-6.72,2.06-7.61,1.32" style="fill:none;stroke:black;stroke-width:3" />
<circle cx="583.2" cy="56.03" r="5" stroke-width="0" fill="#FF2A00" opacity="0.7" />
<path d="M686.63,21.67c0.94,0.38,2.66,0.46,3.6,0.38c6.77-0.55,31.52-2.8,37.36-3.38c1.56-0.16,2.21-0.09,3.03-0.02" style="fill:none;stroke:#999;stroke-width:3" />
<path d="M705.56,8.38c0.76,0.26,2.36,1.91,2.51,2.42c0.15,0.51,0.35,25.06,0.43,33.19" style="fill:none;stroke:#999;stroke-width:3" />
<path d="M688.38,33.28c0.94,0.28,2.66,0.34,3.6,0.28c6.77-0.4,27.52-3.49,33.36-3.92c1.56-0.11,2.71-0.06,3.53-0.02" style="fill:none;stroke:#999;stroke-width:3" />
<path d="M669.63,47.5c1.47,0.3,4.15,0.36,5.62,0.3c10.56-0.43,56.76-6.05,68.52-6.3c2.43-0.05,5.98-0.25,7.73,0.48" style="fill:none;stroke:#999;stroke-width:3" />
<path d="M690.51,54.94c0.67,0.59,1.34,2.14,1.34,2.77c0,5.8,0.65,27.55-0.35,40.05" style="fill:none;stroke:#999;stroke-width:3" />
<path d="M692.2,56.03c2.69-0.15,28.34-2.63,30.33-2.8c3.58-0.29,4.93,1.91,4.48,2.8c-0.43,0.85-0.67,25.98-0.67,37.9c0,10.58-6.72,2.06-7.61,1.32" style="fill:none;stroke:#999;stroke-width:3" />
<path d="M693.2,67.86c4.98,0,10.04-0.82,14.98-1.32c1.64-0.17,3.3-0.33,4.94-0.49" style="fill:none;stroke:black;stroke-width:3" />
<circle cx="693.2" cy="67.86" r="5" stroke-width="0" fill="#FF2A00" opacity="0.7" />
<path d="M795.63,21.67c0.94,0.38,2.66,0.46,3.6,0.38c6.77-0.55,31.52-2.8,37.36-3.38c1.56-0.16,2.21-0.09,3.03-0.02" style="fill:none;stroke:#999;stroke-width:3" />
<path d="M814.56,8.38c0.76,0.26,2.36,1.91,2.51,2.42c0.15,0.51,0.35,25.06,0.43,33.19" style="fill:none;stroke:#999;stroke-width:3" />
<path d="M797.38,33.28c0.94,0.28,2.66,0.34,3.6,0.28c6.77-0.4,27.52-3.49,33.36-3.92c1.56-0.11,2.71-0.06,3.53-0.02" style="fill:none;stroke:#999;stroke-width:3" />
<path d="M778.63,47.5c1.47,0.3,4.15,0.36,5.62,0.3c10.56-0.43,56.76-6.05,68.52-6.3c2.43-0.05,5.98-0.25,7.73,0.48" style="fill:none;stroke:#999;stroke-width:3" />
<path d="M799.51,54.94c0.67,0.59,1.34,2.14,1.34,2.77c0,5.8,0.65,27.55-0.35,40.05" style="fill:none;stroke:#999;stroke-width:3" />
<path d="M801.2,56.03c2.69-0.15,28.34-2.63,30.33-2.8c3.58-0.29,4.93,1.91,4.48,2.8c-0.43,0.85-0.67,25.98-0.67,37.9c0,10.58-6.72,2.06-7.61,1.32" style="fill:none;stroke:#999;stroke-width:3" />
<path d="M802.2,67.86c4.98,0,10.04-0.82,14.98-1.32c1.64-0.17,3.3-0.33,4.94-0.49" style="fill:none;stroke:#999;stroke-width:3" />
<path d="M802.87,78.98c4.88,0,9.79-0.62,14.64-1.03c1.53-0.13,3.08-0.26,4.61-0.38" style="fill:none;stroke:black;stroke-width:3" />
<circle cx="802.87" cy="78.98" r="5" stroke-width="0" fill="#FF2A00" opacity="0.7" />
</svg>