<svg width="1090px" height="109px" viewBox="0 0 1090px 109px" xmlns="http://www.w3.org/2000/svg" xmlns:xlink="http://www.w3.org/1999/xlink" xml:space="preserve" version="1.1"  baseProfile="full">
<line x1="1" y1="1" x2="1089" y2="1" style="stroke:#ddd;stroke-width:2" />
<line x1="1" y1="1" x2="1" y2="108" style="stroke:#ddd;stroke-width:2" />
<line x1="1" y1="108" x2="1089" y2="108" style="stroke:#ddd;stroke-width:2" />
<line x1="1089" y1="1" x2="1089" y2="108" style="stroke:#ddd;stroke-width:2" />
<line x1="109" y1="1" x2="109" y2="108" style="stroke:#ddd;stroke-width:2" />
<line x1="218" y1="1" x2="218" y2="108" style="stroke:#ddd;stroke-width:2" />
<line x1="327" y1="1" x2="327" y2="108" style="stroke:#ddd;stroke-width:2" />
<line x1="436" y1="1" x2="436" y2="108" style="stroke:#ddd;stroke-width:2" />
<line x1="545" y1="1" x2="545" y2="108" style="stroke:#ddd;stroke-width:2" />
<line x1="654" y1="1" x2="654" y2="108" style="stroke:#ddd;stroke-width:2" />
<line x1="763" y1="1" x2="763" y2="108" style="stroke:#ddd;stroke-width:2" />
<line x1="872" y1="1" x2="872" y2="108" style="stroke:#ddd;stroke-width:2" />
<line x1="981" y1="1" x2="981" y2="108" style="stroke:#ddd;stroke-width:2" />
<line x1="1" y1="54" x2="1089" y2="54" style="stroke:#ddd;stroke-width:2;stroke-dasharray:3 3" />
<line x1="55" y1="1" x2="55" y2="108" style="stroke:#ddd;stroke-width:2;stroke-dasharray:3 3" />
<line x1="164" y1="1" x2="164" y2="108" style="stroke:#ddd;stroke-width:2;stroke-dasharray:3 3" />
<line x1="273" y1="1" x2="273" y2="108" style="stroke:#ddd;stroke-width:2;stroke-dasharray:3 3" />
<line x1="382" y1="1" x2="382" y2="108" style="stroke:#ddd;stroke-width:2;stroke-dasharray:3 3" />
<line x1="491" y1="1" x2="491" y2="108" style="stroke:#ddd;stroke-width:2;stroke-dasharray:3 3" />
<line x1="600" y1="1" x2="600" y2="108" style="stroke:#ddd;stroke-width:2;stroke-dasharray:3 3" />
<line x1="709" y1="1" x2="709" y2="108" style="stroke:#ddd;stroke-width:2;stroke-dasharray:3 3" />
<line x1="818" y1="1" x2="818" y2="108" style="stroke:#ddd;stroke-width:2;stroke-dasharray:3 3" />
<line x1="927" y1="1" x2="927" y2="108" style="stroke:#ddd;stroke-width:2;stroke-dasharray:3 3" />
<line x1="1036" y1="1" x2="1036" y2="108" style="stroke:#ddd;stroke-width:2;stroke-dasharray:3 3" />
<path d="M49.53,11.25c2.42,1.09,6.02,5.3,6.39,7.44" style="fill:none;stroke:black;stroke-width:3" />
<circle cx="49.53" cy="11.25" r="5" stroke-width="0" fill="#FF2A00" opacity="0.7" />
<path d="M158.53,11.25c2.42,1.09,6.02,5.3,6.39,7.44" style="fill:none;stroke:#999;stroke-width:3" />
<path d="M131.9,25.45c1.19,0.09,3.89,0.58,5.05,0.46c9.32-0.96,41.59-4.92,54.25-5.17c1.96-0.04,2.95,0.04,4.41,0.58" style="fill:none;stroke:black;stroke-width:3" />
<circle cx="131.9" cy="25.45" r="5" stroke-width="0" fill="#FF2A00" opacity="0.7" />
<path d="M267.53,11.25c2.42,1.09,6.02,5.3,6.39,7.44" style="fill:none;stroke:#999;stroke-width:3" />
<path d="M240.9,25.45c1.19,0.09,3.89,0.58,5.05,0.46c9.32-0.96,41.59-4.92,54.25-5.17c1.96-0.04,2.95,0.04,4.41,0.58" style="fill:none;stroke:#999;stroke-width:3" />
<path d="M253.75,33.75c0.54,0.32,1.1,0.59,1.34,1c1.89,3.2,2.14,12.01,3.43,17.76" style="fill:none;stroke:black;stroke-width:3" />
<circle cx="253.75" cy="33.75" r="5" stroke-width="0" fill="#FF2A00" opacity="0.7" />
<path d="M376.53,11.25c2.42,1.09,6.02,5.3,6.39,7.44" style="fill:none;stroke:#999;stroke-width:3" />
<path d="M349.9,25.45c1.19,0.09,3.89,0.58,5.05,0.46c9.32-0.96,41.59-4.92,54.25-5.17c1.96-0.04,2.95,0.04,4.41,0.58" style="fill:none;stroke:#999;stroke-width:3" />
<path d="M362.75,33.75c0.54,0.32,1.1,0.59,1.34,1c1.89,3.2,2.14,12.01,3.43,17.76" style="fill:none;stroke:#999;stroke-width:3" />
<path d="M366.14,35.92c11.12-1.67,23.66-3.51,30.03-3.93c2.33-0.15,3.73,1.91,3.39,2.81c-1.38,3.73-1.99,6.25-4.04,11.41" style="fill:none;stroke:black;stroke-width:3" />
<circle cx="366.14" cy="35.92" r="5" stroke-width="0" fill="#FF2A00" opacity="0.7" />
<path d="M485.53,11.25c2.42,1.09,6.02,5.3,6.39,7.44" style="fill:none;stroke:#999;stroke-width:3" />
<path d="M458.9,25.45c1.19,0.09,3.89,0.58,5.05,0.46c9.32-0.96,41.59-4.92,54.25-5.17c1.96-0.04,2.95,0.04,4.41,0.58" style="fill:none;stroke:#999;stroke-width:3" />
<path d="M471.75,33.75c0.54,0.32,1.1,0.59,1.34,1c1.89,3.2,2.14,12.01,3.43,17.76" style="fill:none;stroke:#999;stroke-width:3" />
<path d="M475.14,35.92c11.12-1.67,23.66-3.51,30.03-3.93c2.33-0.15,3.73,1.91,3.39,2.81c-1.38,3.73-1.99,6.25-4.04,11.41" style="fill:none;stroke:#999;stroke-width:3" />
<path d="M476.78,49.69c7.48-0.48,19.8-2.3,30.07-3.02" style="fill:none;stroke:black;stroke-width:3" />
<circle cx="476.78" cy="49.69" r="5" stroke-width="0" fill="#FF2A00" opacity="0.7" />
<path d="M594.53,11.25c2.42,1.09,6.02,5.3,6.39,7.44" style="fill:none;stroke:#999;stroke-width:3" />
<path d="M567.9,25.45c1.19,0.09,3.89,0.58,5.05,0.46c9.32-0.96,41.59-4.92,54.25-5.17c1.96-0.04,2.95,0.04,4.41,0.58" style="fill:none;stroke:#999;stroke-width:3" />
<path d="M580.75,33.75c0.54,0.32,1.1,0.59,1.34,1c1.89,3.2,2.14,12.01,3.43,17.76" style="fill:none;stroke:#999;stroke-width:3" />
<path d="M584.14,35.92c11.12-1.67,23.66-3.51,30.03-3.93c2.33-0.15,3.73,1.91,3.39,2.81c-1.38,3.73-1.99,6.25-4.04,11.41" style="fill:none;stroke:#999;stroke-width:3" />
<path d="M585.78,49.69c7.48-0.48,19.8-2.3,30.07-3.02" style="fill:none;stroke:#999;stroke-width:3" />
<path d="M566.25,60.75c0.72,1.25,1.73,2.75,1.96,5C568.75,71,571.0,88.5,571.75,96.5" style="fill:none;stroke:black;stroke-width:3" />
<circle cx="566.25" cy="60.75" r="5" stroke-width="0" fill="#FF2A00" opacity="0.7" />
<path d="M703.53,11.25c2.42,1.09,6.02,5.3,6.39,7.44" style="fill:none;stroke:#999;stroke-width:3" />
<path d="M676.9,25.45c1.19,0.09,3.89,0.58,5.05,0.46c9.32-0.96,41.59-4.92,54.25-5.17c1.96-0.04,2.95,0.04,4.41,0.58" style="fill:none;stroke:#999;stroke-width:3" />
<path d="M689.75,33.75c0.54,0.32,1.1,0.59,1.34,1c1.89,3.2,2.14,12.01,3.43,17.76" style="fill:none;stroke:#999;stroke-width:3" />
<path d="M693.14,35.92c11.12-1.67,23.66-3.51,30.03-3.93c2.33-0.15,3.73,1.91,3.39,2.81c-1.38,3.73-1.99,6.25-4.04,11.41" style="fill:none;stroke:#999;stroke-width:3" />
<path d="M694.78,49.69c7.48-0.48,19.8-2.3,30.07-3.02" style="fill:none;stroke:#999;stroke-width:3" />
<path d="M675.25,60.75c0.72,1.25,1.73,2.75,1.96,5C677.75,71,680.0,88.5,680.75,96.5" style="fill:none;stroke:#999;stroke-width:3" />
<path d="M678.61,63.75c9.89-0.5,56.82-6.2,58.64-6.5c4.5-0.75,7.21,1,6.25,7.75c-1.32,9.28-2.42,19.48-5.5,26.75c-2.75,6.5-4.9,1.75-7.55,0" style="fill:none;stroke:black;stroke-width:3" />
<circle cx="678.61" cy="63.75" r="5" stroke-width="0" fill="#FF2A00" opacity="0.7" />
<path d="M812.53,11.25c2.42,1.09,6.02,5.3,6.39,7.44" style="fill:none;stroke:#999;stroke-width:3" />
<path d="M785.9,25.45c1.19,0.09,3.89,0.58,5.05,0.46c9.32-0.96,41.59-4.92,54.25-5.17c1.96-0.04,2.95,0.04,4.41,0.58" style="fill:none;stroke:#999;stroke-width:3" />
<path d="M798.75,33.75c0.54,0.32,1.1,0.59,1.34,1c1.89,3.2,2.14,12.01,3.43,17.76" style="fill:none;stroke:#999;stroke-width:3" />
<path d="M802.14,35.92c11.12-1.67,23.66-3.51,30.03-3.93c2.33-0.15,3.73,1.91,3.39,2.81c-1.38,3.73-1.99,6.25-4.04,11.41" style="fill:none;stroke:#999;stroke-width:3" />
<path d="M803.78,49.69c7.48-0.48,19.8-2.3,30.07-3.02" style="fill:none;stroke:#999;stroke-width:3" />
<path d="M784.25,60.75c0.72,1.25,1.73,2.75,1.96,5C786.75,71,789.0,88.5,789.75,96.5" style="fill:none;stroke:#999;stroke-width:3" />
<path d="M787.61,63.75c9.89-0.5,56.82-6.2,58.64-6.5c4.5-0.75,7.21,1,6.25,7.75c-1.32,9.28-2.42,19.48-5.5,26.75c-2.75,6.5-4.9,1.75-7.55,0" style="fill:none;stroke:#999;stroke-width:3" />
<path d="M804.75,71.43c0.38,0.31,0.77,0.57,0.94,0.96c1.33,3.08,2.91,11.58,3.82,17.11" style="fill:none;stroke:black;stroke-width:3" />
<circle cx="804.75" cy="71.43" r="5" stroke-width="0" fill="#FF2A00" opacity="0.7" />
<path d="M921.53,11.25c2.42,1.09,6.02,5.3,6.39,7.44" style="fill:none;stroke:#999;stroke-width:3" />
<path d="M894.9,25.45c1.19,0.09,3.89,0.58,5.05,0.46c9.32-0.96,41.59-4.92,54.25-5.17c1.96-0.04,2.95,0.04,4.41,0.58" style="fill:none;stroke:#999;stroke-width:3" />
<path d="M907.75,33.75c0.54,0.32,1.1,0.59,1.34,1c1.89,3.2,2.14,12.01,3.43,17.76" style="fill:none;stroke:#999;stroke-width:3" />
<path d="M911.14,35.92c11.12-1.67,23.66-3.51,30.03-3.93c2.33-0.15,3.73,1.91,3.39,2.81c-1.38,3.73-1.99,6.25-4.04,11.41" style="fill:none;stroke:#999;stroke-width:3" />
<path d="M912.78,49.69c7.48-0.48,19.8-2.3,30.07-3.02" style="fill:none;stroke:#999;stroke-width:3" />
<path d="M893.25,60.75c0.72,1.25,1.73,2.75,1.96,5C895.75,71,898.0,88.5,898.75,96.5" style="fill:none;stroke:#999;stroke-width:3" />
<path d="M896.61,63.75c9.89-0.5,56.82-6.2,58.64-6.5c4.5-0.75,7.21,1,6.25,7.75c-1.32,9.28-2.42,19.48-5.5,26.75c-2.75,6.5-4.9,1.75-7.55,0" style="fill:none;stroke:#999;stroke-width:3" />
<path d="M913.75,71.43c0.38,0.31,0.77,0.57,0.94,0.96c1.33,3.08,2.91,11.58,3.82,17.11" style="fill:none;stroke:#999;stroke-width:3" />
<path d="M916.13,73.52c7.82-1.6,16.35-3.22,20.81-3.79c1.81-0.23,3.56,1.27,3.38,2.75c-0.44,3.7-2.1,6.94-3.54,11.92" style="fill:none;stroke:black;stroke-width:3" />
<circle cx="916.13" cy="73.52" r="5" stroke-width="0" fill="#FF2A00" opacity="0.7" />
<path d="M1030.53,11.25c2.42,1.09,6.02,5.3,6.39,7.44" style="fill:none;stroke:#999;stroke-width:3" />
<path d="M1003.9,25.45c1.19,0.09,3.89,0.58,5.05,0.46c9.32-0.96,41.59-4.92,54.25-5.17c1.96-0.04,2.95,0.04,4.41,0.58" style="fill:none;stroke:#999;stroke-width:3" />
<path d="M1016.75,33.75c0.54,0.32,1.1,0.59,1.34,1c1.89,3.2,2.14,12.01,3.43,17.76" style="fill:none;stroke:#999;stroke-width:3" />
<path d="M1020.14,35.92c11.12-1.67,23.66-3.51,30.03-3.93c2.33-0.15,3.73,1.91,3.39,2.81c-1.38,3.73-1.99,6.25-4.04,11.41" style="fill:none;stroke:#999;stroke-width:3" />
<path d="M1021.78,49.69c7.48-0.48,19.8-2.3,30.07-3.02" style="fill:none;stroke:#999;stroke-width:3" />
<path d="M1002.25,60.75c0.72,1.25,1.73,2.75,1.96,5C1004.75,71,1007.0,88.5,1007.75,96.5" style="fill:none;stroke:#999;stroke-width:3" />
<path d="M1005.61,63.75c9.89-0.5,56.82-6.2,58.64-6.5c4.5-0.75,7.21,1,6.25,7.75c-1.32,9.28-2.42,19.48-5.5,26.75c-2.75,6.5-4.9,1.75-7.55,0" style="fill:none;stroke:#999;stroke-width:3" />
<path d="M1022.75,71.43c0.38,0.31,0.77,0.57,0.94,0.96c1.33,3.08,2.91,11.58,3.82,17.11" style="fill:none;stroke:#999;stroke-width:3" />
<path d="M1025.13,73.52c7.82-1.6,16.35-3.22,20.81-3.79c1.81-0.23,3.56,1.27,3.38,2.75c-0.44,3.7-2.1,6.94-3.54,11.92" style="fill:none;stroke:#999;stroke-width:3" />
<path d="M1027.69,86.8c5.26-0.46,12.51-1.25,19.73-1.95" style="fill:none;stroke:black;stroke-width:3" />
<circle cx="1027.69" cy="86.8" r="5" stroke-width="0" fill="#FF2A00" opacity="0.7" />
</svg>