<svg width="1199px" height="109px" viewBox="0 0 1199px 109px" xmlns="http://www.w3.org/2000/svg" xmlns:xlink="http://www.w3.org/1999/xlink" xml:space="preserve" version="1.1"  baseProfile="full">
<line x1="1" y1="1" x2="1198" y2="1" style="stroke:#ddd;stroke-width:2" />
<line x1="1" y1="1" x2="1" y2="108" style="stroke:#ddd;stroke-width:2" />
<line x1="1" y1="108" x2="1198" y2="108" style="stroke:#ddd;stroke-width:2" />
<line x1="1198" y1="1" x2="1198" y2="108" style="stroke:#ddd;stroke-width:2" />
<line x1="109" y1="1" x2="109" y2="108" style="stroke:#ddd;stroke-width:2" />
<line x1="218" y1="1" x2="218" y2="108" style="stroke:#ddd;stroke-width:2" />
<line x1="327" y1="1" x2="327" y2="108" style="stroke:#ddd;stroke-width:2" />
<line x1="436" y1="1" x2="436" y2="108" style="stroke:#ddd;stroke-width:2" />
<line x1="545" y1="1" x2="545" y2="108" style="stroke:#ddd;stroke-width:2" />
<line x1="654" y1="1" x2="654" y2="108" style="stroke:#ddd;stroke-width:2" />
<line x1="763" y1="1" x2="763" y2="108" style="stroke:#ddd;stroke-width:2" />
<line x1="872" y1="1" x2="872" y2="108" style="stroke:#ddd;stroke-width:2" />
<line x1="981" y1="1" x2="981" y2="108" style="stroke:#ddd;stroke-width:2" />
<line x1="1090" y1="1" x2="1090" y2="108" style="stroke:#ddd;stroke-width:2" />
<line x1="1" y1="54" x2="1198" y2="54" style="stroke:#ddd;stroke-width:2;stroke-dasharray:3 3" />
<line x1="55" y1="1" x2="55" y2="108" style="stroke:#ddd;stroke-width:2;stroke-dasharray:3 3" />
<line x1="164" y1="1" x2="164" y2="108" style="stroke:#ddd;stroke-width:2;stroke-dasharray:3 3" />
<line x1="273" y1="1" x2="273" y2="108" style="stroke:#ddd;stroke-width:2;stroke-dasharray:3 3" />
<line x1="382" y1="1" x2="382" y2="108" style="stroke:#ddd;stroke-width:2;stroke-dasharray:3 3" />
<line x1="491" y1="1" x2="491" y2="108" style="stroke:#ddd;stroke-width:2;stroke-dasharray:3 3" />
<line x1="600" y1="1" x2="600" y2="108" style="stroke:#ddd;stroke-width:2;stroke-dasharray:3 3" />
<line x1="709" y1="1" x2="709" y2="108" style="stroke:#ddd;stroke-width:2;stroke-dasharray:3 3" />
<line x1="818" y1="1" x2="818" y2="108" style="stroke:#ddd;stroke-width:2;stroke-dasharray:3 3" />
<line x1="927" y1="1" x2="927" y2="108" style="stroke:#ddd;stroke-width:2;stroke-dasharray:3 3" />
<line x1="1036" y1="1" x2="1036" y2="108" style="stroke:#ddd;stroke-width:2;stroke-dasharray:3 3" />
<line x1="1145" y1="1" x2="1145" y2="108" style="stroke:#ddd;stroke-width:2;stroke-dasharray:3 3" />
<path d="M28.61,18.41c0.41,0.45,0.92,1.77,1.15,2.33c1.85,4.69,3.59,17.02,4.74,25.76" style="fill:none;stroke:black;stroke-width:3" />
<circle cx="28.61" cy="18.41" r="5" stroke-width="0" fill="#FF2A00" opacity="0.7" />
<path d="M137.61,18.41c0.41,0.45,0.92,1.77,1.15,2.33c1.85,4.69,3.59,17.02,4.74,25.76" style="fill:none;stroke:#999;stroke-width:3" />
<path d="M139.87,19.98c13.13-1.07,36.65-3.39,46.45-4.29c3.6-0.33,5.43,1.31,5.26,3.01c-0.43,4.32-3.33,17.55-6,25.15" style="fill:none;stroke:black;stroke-width:3" />
<circle cx="139.87" cy="19.98" r="5" stroke-width="0" fill="#FF2A00" opacity="0.7" />
<path d="M246.61,18.41c0.41,0.45,0.92,1.77,1.15,2.33c1.85,4.69,3.59,17.02,4.74,25.76" style="fill:none;stroke:#999;stroke-width:3" />
<path d="M248.87,19.98c13.13-1.07,36.65-3.39,46.45-4.29c3.6-0.33,5.43,1.31,5.26,3.01c-0.43,4.32-3.33,17.55-6,25.15" style="fill:none;stroke:#999;stroke-width:3" />
<path d="M251.32,32.49c10.19-1.01,20.41-1.72,30.61-2.54c1.22-0.1,2.42-0.19,3.56-0.28" style="fill:none;stroke:black;stroke-width:3" />
<circle cx="251.32" cy="32.49" r="5" stroke-width="0" fill="#FF2A00" opacity="0.7" />
<path d="M355.61,18.41c0.41,0.45,0.92,1.77,1.15,2.33c1.85,4.69,3.59,17.02,4.74,25.76" style="fill:none;stroke:#999;stroke-width:3" />
<path d="M357.87,19.98c13.13-1.07,36.65-3.39,46.45-4.29c3.6-0.33,5.43,1.31,5.26,3.01c-0.43,4.32-3.33,17.55-6,25.15" style="fill:none;stroke:#999;stroke-width:3" />
<path d="M360.32,32.49c10.19-1.01,20.41-1.72,30.61-2.54c1.22-0.1,2.42-0.19,3.56-0.28" style="fill:none;stroke:#999;stroke-width:3" />
<path d="M361.72,43.91c9.46-0.46,29.81-3.36,42.87-4.11" style="fill:none;stroke:black;stroke-width:3" />
<circle cx="361.72" cy="43.91" r="5" stroke-width="0" fill="#FF2A00" opacity="0.7" />
<path d="M464.61,18.41c0.41,0.45,0.92,1.77,1.15,2.33c1.85,4.69,3.59,17.02,4.74,25.76" style="fill:none;stroke:#999;stroke-width:3" />
<path d="M466.87,19.98c13.13-1.07,36.65-3.39,46.45-4.29c3.6-0.33,5.43,1.31,5.26,3.01c-0.43,4.32-3.33,17.55-6,25.15" style="fill:none;stroke:#999;stroke-width:3" />
<path d="M469.32,32.49c10.19-1.01,20.41-1.72,30.61-2.54c1.22-0.1,2.42-0.19,3.56-0.28" style="fill:none;stroke:#999;stroke-width:3" />
<path d="M470.72,43.91c9.46-0.46,29.81-3.36,42.87-4.11" style="fill:none;stroke:#999;stroke-width:3" />
<path d="M489.52,19.31c0.73,0.69,1.07,1.09,1.1,1.93c0.34,9.62,0.14,43.11,0.14,46.5" style="fill:none;stroke:black;stroke-width:3" />
<circle cx="489.52" cy="19.31" r="5" stroke-width="0" fill="#FF2A00" opacity="0.7" />
<path d="M573.61,18.41c0.41,0.45,0.92,1.77,1.15,2.33c1.85,4.69,3.59,17.02,4.74,25.76" style="fill:none;stroke:#999;stroke-width:3" />
<path d="M575.87,19.98c13.13-1.07,36.65-3.39,46.45-4.29c3.6-0.33,5.43,1.31,5.26,3.01c-0.43,4.32-3.33,17.55-6,25.15" style="fill:none;stroke:#999;stroke-width:3" />
<path d="M578.3199999999999,32.49c10.19-1.01,20.41-1.72,30.61-2.54c1.22-0.1,2.42-0.19,3.56-0.28" style="fill:none;stroke:#999;stroke-width:3" />
<path d="M579.72,43.91c9.46-0.46,29.81-3.36,42.87-4.11" style="fill:none;stroke:#999;stroke-width:3" />
<path d="M598.52,19.31c0.73,0.69,1.07,1.09,1.1,1.93c0.34,9.62,0.14,43.11,0.14,46.5" style="fill:none;stroke:#999;stroke-width:3" />
<path d="M579.38,57.39c0.84,0.28,2.37,0.31,3.21,0.28c8.71-0.32,19.63-3.14,35.67-3.22c1.4,0,2.23,0.13,2.93,0.27" style="fill:none;stroke:black;stroke-width:3" />
<circle cx="579.38" cy="57.39" r="5" stroke-width="0" fill="#FF2A00" opacity="0.7" />
<path d="M682.61,18.41c0.41,0.45,0.92,1.77,1.15,2.33c1.85,4.69,3.59,17.02,4.74,25.76" style="fill:none;stroke:#999;stroke-width:3" />
<path d="M684.87,19.98c13.13-1.07,36.65-3.39,46.45-4.29c3.6-0.33,5.43,1.31,5.26,3.01c-0.43,4.32-3.33,17.55-6,25.15" style="fill:none;stroke:#999;stroke-width:3" />
<path d="M687.3199999999999,32.49c10.19-1.01,20.41-1.72,30.61-2.54c1.22-0.1,2.42-0.19,3.56-0.28" style="fill:none;stroke:#999;stroke-width:3" />
<path d="M688.72,43.91c9.46-0.46,29.81-3.36,42.87-4.11" style="fill:none;stroke:#999;stroke-width:3" />
<path d="M707.52,19.31c0.73,0.69,1.07,1.09,1.1,1.93c0.34,9.62,0.14,43.11,0.14,46.5" style="fill:none;stroke:#999;stroke-width:3" />
<path d="M688.38,57.39c0.84,0.28,2.37,0.31,3.21,0.28c8.71-0.32,19.63-3.14,35.67-3.22c1.4,0,2.23,0.13,2.93,0.27" style="fill:none;stroke:#999;stroke-width:3" />
<path d="M674.63,70.97c1.35,0.4,3.84,0.46,5.19,0.4c14.09-0.67,38.89-4.34,58.57-4.34c2.26,0,3.61,0.19,4.74,0.39" style="fill:none;stroke:black;stroke-width:3" />
<circle cx="674.63" cy="70.97" r="5" stroke-width="0" fill="#FF2A00" opacity="0.7" />
<path d="M791.61,18.41c0.41,0.45,0.92,1.77,1.15,2.33c1.85,4.69,3.59,17.02,4.74,25.76" style="fill:none;stroke:#999;stroke-width:3" />
<path d="M793.87,19.98c13.13-1.07,36.65-3.39,46.45-4.29c3.6-0.33,5.43,1.31,5.26,3.01c-0.43,4.32-3.33,17.55-6,25.15" style="fill:none;stroke:#999;stroke-width:3" />
<path d="M796.3199999999999,32.49c10.19-1.01,20.41-1.72,30.61-2.54c1.22-0.1,2.42-0.19,3.56-0.28" style="fill:none;stroke:#999;stroke-width:3" />
<path d="M797.72,43.91c9.46-0.46,29.81-3.36,42.87-4.11" style="fill:none;stroke:#999;stroke-width:3" />
<path d="M816.52,19.31c0.73,0.69,1.07,1.09,1.1,1.93c0.34,9.62,0.14,43.11,0.14,46.5" style="fill:none;stroke:#999;stroke-width:3" />
<path d="M797.38,57.39c0.84,0.28,2.37,0.31,3.21,0.28c8.71-0.32,19.63-3.14,35.67-3.22c1.4,0,2.23,0.13,2.93,0.27" style="fill:none;stroke:#999;stroke-width:3" />
<path d="M783.63,70.97c1.35,0.4,3.84,0.46,5.19,0.4c14.09-0.67,38.89-4.34,58.57-4.34c2.26,0,3.61,0.19,4.74,0.39" style="fill:none;stroke:#999;stroke-width:3" />
<path d="M787.19,81.5c-1.19,6-6.9,13-8.44,14.5" style="fill:none;stroke:black;stroke-width:3" />
<circle cx="787.19" cy="81.5" r="5" stroke-width="0" fill="#FF2A00" opacity="0.7" />
<path d="M900.61,18.41c0.41,0.45,0.92,1.77,1.15,2.33c1.85,4.69,3.59,17.02,4.74,25.76" style="fill:none;stroke:#999;stroke-width:3" />
<path d="M902.87,19.98c13.13-1.07,36.65-3.39,46.45-4.29c3.6-0.33,5.43,1.31,5.26,3.01c-0.43,4.32-3.33,17.55-6,25.15" style="fill:none;stroke:#999;stroke-width:3" />
<path d="M905.3199999999999,32.49c10.19-1.01,20.41-1.72,30.61-2.54c1.22-0.1,2.42-0.19,3.56-0.28" style="fill:none;stroke:#999;stroke-width:3" />
<path d="M906.72,43.91c9.46-0.46,29.81-3.36,42.87-4.11" style="fill:none;stroke:#999;stroke-width:3" />
<path d="M925.52,19.31c0.73,0.69,1.07,1.09,1.1,1.93c0.34,9.62,0.14,43.11,0.14,46.5" style="fill:none;stroke:#999;stroke-width:3" />
<path d="M906.38,57.39c0.84,0.28,2.37,0.31,3.21,0.28c8.71-0.32,19.63-3.14,35.67-3.22c1.4,0,2.23,0.13,2.93,0.27" style="fill:none;stroke:#999;stroke-width:3" />
<path d="M892.63,70.97c1.35,0.4,3.84,0.46,5.19,0.4c14.09-0.67,38.89-4.34,58.57-4.34c2.26,0,3.61,0.19,4.74,0.39" style="fill:none;stroke:#999;stroke-width:3" />
<path d="M896.19,81.5c-1.19,6-6.9,13-8.44,14.5" style="fill:none;stroke:#999;stroke-width:3" />
<path d="M914.0,79.5c1.71,2.87,4.25,10.5,3.76,15.25" style="fill:none;stroke:black;stroke-width:3" />
<circle cx="914.0" cy="79.5" r="5" stroke-width="0" fill="#FF2A00" opacity="0.7" />
<path d="M1009.61,18.41c0.41,0.45,0.92,1.77,1.15,2.33c1.85,4.69,3.59,17.02,4.74,25.76" style="fill:none;stroke:#999;stroke-width:3" />
<path d="M1011.87,19.98c13.13-1.07,36.65-3.39,46.45-4.29c3.6-0.33,5.43,1.31,5.26,3.01c-0.43,4.32-3.33,17.55-6,25.15" style="fill:none;stroke:#999;stroke-width:3" />
<path d="M1014.3199999999999,32.49c10.19-1.01,20.41-1.72,30.61-2.54c1.22-0.1,2.42-0.19,3.56-0.28" style="fill:none;stroke:#999;stroke-width:3" />
<path d="M1015.72,43.91c9.46-0.46,29.81-3.36,42.87-4.11" style="fill:none;stroke:#999;stroke-width:3" />
<path d="M1034.52,19.31c0.73,0.69,1.07,1.09,1.1,1.93c0.34,9.62,0.14,43.11,0.14,46.5" style="fill:none;stroke:#999;stroke-width:3" />
<path d="M1015.38,57.39c0.84,0.28,2.37,0.31,3.21,0.28c8.71-0.32,19.63-3.14,35.67-3.22c1.4,0,2.23,0.13,2.93,0.27" style="fill:none;stroke:#999;stroke-width:3" />
<path d="M1001.63,70.97c1.35,0.4,3.84,0.46,5.19,0.4c14.09-0.67,38.89-4.34,58.57-4.34c2.26,0,3.61,0.19,4.74,0.39" style="fill:none;stroke:#999;stroke-width:3" />
<path d="M1005.19,81.5c-1.19,6-6.9,13-8.44,14.5" style="fill:none;stroke:#999;stroke-width:3" />
<path d="M1023.0,79.5c1.71,2.87,4.25,10.5,3.76,15.25" style="fill:none;stroke:#999;stroke-width:3" />
<path d="M1043.25,77.5c2.65,2.69,6.5,10.5,6.5,15.25" style="fill:none;stroke:black;stroke-width:3" />
<circle cx="1043.25" cy="77.5" r="5" stroke-width="0" fill="#FF2A00" opacity="0.7" />
<path d="M1118.6100000000001,18.41c0.41,0.45,0.92,1.77,1.15,2.33c1.85,4.69,3.59,17.02,4.74,25.76" style="fill:none;stroke:#999;stroke-width:3" />
<path d="M1120.87,19.98c13.13-1.07,36.65-3.39,46.45-4.29c3.6-0.33,5.43,1.31,5.26,3.01c-0.43,4.32-3.33,17.55-6,25.15" style="fill:none;stroke:#999;stroke-width:3" />
<path d="M1123.32,32.49c10.19-1.01,20.41-1.72,30.61-2.54c1.22-0.1,2.42-0.19,3.56-0.28" style="fill:none;stroke:#999;stroke-width:3" />
<path d="M1124.72,43.91c9.46-0.46,29.81-3.36,42.87-4.11" style="fill:none;stroke:#999;stroke-width:3" />
<path d="M1143.52,19.31c0.73,0.69,1.07,1.09,1.1,1.93c0.34,9.62,0.14,43.11,0.14,46.5" style="fill:none;stroke:#999;stroke-width:3" />
<path d="M1124.38,57.39c0.84,0.28,2.37,0.31,3.21,0.28c8.71-0.32,19.63-3.14,35.67-3.22c1.4,0,2.23,0.13,2.93,0.27" style="fill:none;stroke:#999;stroke-width:3" />
<path d="M1110.63,70.97c1.35,0.4,3.84,0.46,5.19,0.4c14.09-0.67,38.89-4.34,58.57-4.34c2.26,0,3.61,0.19,4.74,0.39" style="fill:none;stroke:#999;stroke-width:3" />
<path d="M1114.19,81.5c-1.19,6-6.9,13-8.44,14.5" style="fill:none;stroke:#999;stroke-width:3" />
<path d="M1132.0,79.5c1.71,2.87,4.25,10.5,3.76,15.25" style="fill:none;stroke:#999;stroke-width:3" />
<path d="M1152.25,77.5c2.65,2.69,6.5,10.5,6.5,15.25" style="fill:none;stroke:#999;stroke-width:3" />
<path d="M1173.71,79.08c4.27,2.63,11.03,10.8,12.1,14.88" style="fill:none;stroke:black;stroke-width:3" />
<circle cx="1173.71" cy="79.08" r="5" stroke-width="0" fill="#FF2A00" opacity="0.7" />
</svg>